<svg width="55" height="51" viewBox="0 0 55 51" fill="none" xmlns="http://www.w3.org/2000/svg">
<path d="M5.26639 45.9806C8.6321 45.9806 11.8979 45.9806 15.253 45.9806C15.253 45.7015 15.253 45.4417 15.253 45.182C15.253 44.1343 15.7439 43.3958 16.6299 42.8762C16.785 42.7861 16.955 42.5477 16.955 42.3781C16.972 36.5021 16.9699 30.6261 16.9678 24.7501C16.9678 24.6471 16.9465 24.5419 16.9508 24.5762C16.2687 24.3551 15.6631 24.1533 15.0533 23.9622C14.9556 23.93 14.8451 23.9214 14.741 23.9214C11.6833 23.9193 8.6236 23.9215 5.56599 23.9236C5.49799 23.9236 5.43 23.9386 5.30251 23.9558C5.28976 24.1683 5.26851 24.3723 5.26851 24.5784C5.26639 27.4187 5.26639 30.2569 5.26639 33.0972C5.26639 33.241 5.27064 33.3827 5.26426 33.5266C5.23877 34.1084 4.92854 34.4691 4.46321 34.4691C3.99575 34.4691 3.67702 34.1105 3.6749 33.5244C3.6664 31.0963 3.67065 28.666 3.67065 26.2379C3.67065 25.4908 3.67065 24.7458 3.67065 23.9644C3.46454 23.9472 3.31155 23.9257 3.15857 23.9236C2.54025 23.9172 1.92192 23.9257 1.3036 23.9086C0.778771 23.8935 0.326185 23.7196 0.0967041 23.1958C-0.141276 22.6548 0.0924544 22.2211 0.445174 21.8368C2.04304 20.0957 3.64728 18.3589 5.25151 16.6199C6.49241 15.2738 7.74818 13.9406 8.97207 12.5795C9.47353 12.0213 10.0536 11.7766 10.7952 11.7787C14.7367 11.7916 18.6804 11.7809 22.6219 11.7916C22.9619 11.7916 23.2147 11.71 23.4591 11.4545C24.3048 10.5679 25.1908 9.71772 26.028 8.82247C26.2107 8.6271 26.3467 8.30507 26.3488 8.03886C26.3743 5.93277 26.3616 3.82454 26.3637 1.71631C26.3658 0.438917 26.795 0.000954167 28.0423 0.000954167C29.6338 0.000954167 31.2253 -0.00119271 32.8168 0.000954167C33.8473 0.00310104 34.3063 0.458239 34.3148 1.49947C34.3233 2.55359 34.3233 3.60771 34.3148 4.65968C34.3063 5.68803 33.8686 6.13029 32.8572 6.13673C31.442 6.14317 30.029 6.13887 28.6139 6.13887C28.4227 6.13887 28.2314 6.13887 27.9701 6.13887C27.9701 6.92034 27.9573 7.64598 27.9807 8.36948C27.985 8.50259 28.1188 8.65072 28.2251 8.75806C29.1324 9.68551 30.0375 10.6151 30.9703 11.5168C31.1361 11.6757 31.4293 11.7723 31.6651 11.7723C35.5897 11.7873 39.5142 11.7959 43.4388 11.7744C44.2632 11.7701 44.8815 12.0535 45.4382 12.6632C48.158 15.6431 50.9054 18.5993 53.64 21.5663C54.065 22.0279 54.5431 22.4895 54.2201 23.2044C53.9099 23.8935 53.2724 23.9214 52.6371 23.9193C52.0039 23.9193 51.3707 23.9193 50.6865 23.9193C50.6759 24.1555 50.6568 24.3444 50.6568 24.5355C50.6546 31.4999 50.6568 38.4665 50.6504 45.431C50.6504 45.7852 50.6738 46.0064 51.1115 46.0922C51.8658 46.2404 52.3396 46.9038 52.38 47.7346C52.4012 48.1618 52.3885 48.5912 52.3864 49.0206C52.3779 50.3259 51.7085 51 50.4167 51C40.6042 51 30.7918 51 20.9794 51C15.304 51 9.62864 51 3.95325 51C2.59124 51 1.94105 50.3431 1.9368 48.9605C1.93467 48.5676 1.92617 48.1747 1.94105 47.7818C1.97504 46.878 2.44038 46.2661 3.32218 46.0665C3.7089 45.9785 3.67065 45.7466 3.67065 45.4782C3.66852 42.9428 3.67065 40.4052 3.67065 37.8697C3.67065 37.6915 3.66852 37.5112 3.6834 37.3351C3.71952 36.8714 3.99362 36.6224 4.43133 36.5773C4.84142 36.5344 5.18777 36.8628 5.24726 37.3223C5.27064 37.4983 5.26426 37.6786 5.26426 37.8568C5.26426 40.3386 5.26426 42.8225 5.26426 45.3043C5.26639 45.5169 5.26639 45.7251 5.26639 45.9806ZM27.152 14.6319C24.3218 17.4894 21.5298 20.3018 18.7569 23.1293C18.6124 23.2752 18.5699 23.5758 18.5699 23.8034C18.5593 29.8747 18.5614 35.9461 18.5614 42.0175C18.5614 42.2085 18.5614 42.3975 18.5614 42.5971C19.5515 42.5971 20.478 42.5971 21.432 42.5971C21.432 42.3653 21.432 42.1699 21.432 41.9745C21.432 39.1342 21.4299 36.296 21.432 33.4557C21.432 32.3308 21.9398 31.8112 23.0405 31.8112C25.7624 31.8091 28.4843 31.8091 31.2083 31.8112C32.4131 31.8112 32.8912 32.305 32.8912 33.5416C32.8912 36.3626 32.8912 39.1836 32.8912 42.0067C32.8912 42.1978 32.8912 42.3889 32.8912 42.5993C33.8707 42.5993 34.7971 42.5993 35.7384 42.5993C35.7469 42.4254 35.7597 42.2858 35.7597 42.1441C35.7597 36.0019 35.7639 29.8576 35.7469 23.7154C35.7469 23.4706 35.6067 23.1658 35.4324 22.9876C32.8083 20.3104 30.1671 17.6483 27.5302 14.984C27.4219 14.8788 27.3029 14.7758 27.152 14.6319ZM37.366 24.5634C37.3703 24.5118 37.3575 24.5805 37.3575 24.6492C37.3554 30.5574 37.3533 36.4656 37.3703 42.3739C37.3703 42.5456 37.536 42.7839 37.6911 42.8741C38.5368 43.37 39.0319 44.0677 39.0659 45.0703C39.0765 45.3666 39.068 45.6629 39.068 45.957C42.4443 45.957 45.7357 45.957 49.0228 45.957C49.0228 38.5996 49.0228 31.2895 49.0228 23.9579C48.8847 23.9429 48.7827 23.9236 48.6807 23.9236C45.6592 23.9215 42.6377 23.9214 39.6162 23.9257C39.4632 23.9257 39.3102 23.9794 39.1615 24.0245C38.5963 24.1898 38.0332 24.3616 37.366 24.5634ZM16.8552 46.0021C17.1335 46.0021 17.3417 46.0021 17.55 46.0021C20.0594 46.0021 22.5709 45.9999 25.0803 46.0042C25.6986 46.0064 26.0705 46.3177 26.079 46.8029C26.0875 47.2923 25.7199 47.5972 25.1016 47.6122C24.9422 47.6165 24.7828 47.6122 24.6235 47.6122C17.9601 47.6122 11.2966 47.6122 4.63107 47.6122C3.52829 47.6122 3.52829 47.6122 3.53041 48.6985C3.53041 49.3855 3.53041 49.3855 4.22523 49.3855C19.3922 49.3855 34.557 49.3855 49.724 49.3855C50.7928 49.3855 50.7928 49.3856 50.7928 48.325C50.7928 47.6101 50.7928 47.6101 50.0661 47.6101C43.1902 47.6101 36.3142 47.6101 29.4383 47.6079C29.2258 47.6079 28.9645 47.6702 28.8136 47.5671C28.5629 47.3975 28.2782 47.1507 28.1953 46.8801C28.0827 46.5109 28.3164 46.1824 28.7074 46.0665C28.922 46.0021 29.16 45.9999 29.3873 45.9999C31.8627 45.9956 34.336 45.9978 36.8114 45.9978C37.0176 45.9978 37.2215 45.9978 37.417 45.9978C37.5934 44.7762 37.4553 44.218 36.0231 44.2266C30.0843 44.2631 24.1454 44.2416 18.2065 44.2416C18.0302 44.2416 17.8517 44.2309 17.6775 44.2481C17.1887 44.2953 16.8976 44.5637 16.8594 45.0639C16.836 45.3537 16.8552 45.6371 16.8552 46.0021ZM2.22577 22.2684C6.23955 22.2684 10.1343 22.2684 14.0546 22.2684C13.9803 21.3001 14.3819 20.5938 15.0214 19.9562C17.0485 17.9381 19.0501 15.8943 21.0602 13.8612C21.1855 13.7345 21.2981 13.5971 21.4788 13.3953C17.7964 13.3953 14.2437 13.3889 10.6911 13.4103C10.4871 13.4125 10.2406 13.5907 10.0855 13.7538C8.41112 15.5465 6.75164 17.352 5.0879 19.1532C4.15511 20.1687 3.22231 21.1842 2.22577 22.2684ZM32.8295 13.3953C33.0378 13.6186 33.1546 13.7474 33.2757 13.8698C35.1498 15.7633 37.0154 17.6676 38.9044 19.5461C39.6736 20.3104 40.4024 21.0725 40.277 22.2662C44.2271 22.2662 48.1176 22.2662 52.0443 22.2662C51.9869 22.1739 51.9678 22.1245 51.9338 22.088C49.3436 19.2799 46.7556 16.4675 44.1506 13.6723C43.9976 13.507 43.6937 13.4103 43.4579 13.4082C41.9556 13.3846 40.4534 13.3953 38.9511 13.3953C36.9581 13.3953 34.9629 13.3953 32.8295 13.3953ZM27.1818 9.99466C27.05 10.1127 26.9544 10.19 26.8694 10.2759C23.2572 13.9256 19.6429 17.5774 16.0307 21.2271C15.9564 21.3023 15.8756 21.3753 15.8161 21.4633C15.5633 21.8347 15.5696 22.2125 15.8799 22.5346C16.1901 22.8587 16.564 22.8909 16.9359 22.6312C17.0931 22.5217 17.227 22.3714 17.3651 22.234C20.3547 19.2155 23.3422 16.197 26.3297 13.1785C27.0054 12.4958 27.3178 12.4979 27.9998 13.1871C30.9873 16.2056 33.9748 19.2241 36.9644 22.2426C37.1132 22.3929 37.2577 22.6076 37.4404 22.6548C37.7081 22.7256 38.0693 22.7707 38.2754 22.6419C38.4816 22.511 38.6622 22.146 38.6473 21.8969C38.6303 21.6372 38.4093 21.3516 38.2075 21.1477C35.7299 18.6251 33.2375 16.1154 30.7493 13.6014C29.5743 12.4142 28.4014 11.227 27.1818 9.99466ZM26.3233 42.6057C26.3233 39.5378 26.3233 36.5021 26.3233 33.4514C25.2142 33.4514 24.1454 33.4514 23.0617 33.4514C23.0617 36.5172 23.0617 39.5572 23.0617 42.6057C24.1624 42.6057 25.2312 42.6057 26.3233 42.6057ZM31.2635 42.6143C31.2635 39.5378 31.2635 36.4979 31.2635 33.4536C30.1586 33.4536 29.0899 33.4536 28.0019 33.4536C28.0019 36.5193 28.0019 39.555 28.0019 42.6143C29.1005 42.6143 30.1544 42.6143 31.2635 42.6143ZM27.9913 4.49437C29.5743 4.49437 31.1148 4.49437 32.6851 4.49437C32.6851 3.53042 32.6851 2.59653 32.6851 1.63902C31.1084 1.63902 29.5658 1.63902 27.9913 1.63902C27.9913 2.59009 27.9913 3.5111 27.9913 4.49437Z" fill="#5C5C5C"/>
<path d="M11.1224 26.5749C12.0403 26.5749 12.9604 26.5706 13.8783 26.5749C14.8855 26.5813 15.3848 27.0773 15.3891 28.0799C15.3933 29.0438 15.3954 30.0078 15.3891 30.9717C15.3827 31.8906 14.9046 32.4144 13.9888 32.4251C12.0637 32.4466 10.1365 32.4466 8.20929 32.423C7.32749 32.4123 6.84091 31.8906 6.82391 31.0018C6.80479 30.0013 6.80479 29.003 6.82391 28.0026C6.84091 27.0902 7.35512 26.5878 8.25817 26.5771C9.21433 26.5663 10.1684 26.5749 11.1224 26.5749ZM8.4154 28.2044C8.4154 29.0095 8.40478 29.7523 8.42603 30.4951C8.42815 30.6046 8.57689 30.7978 8.66613 30.8021C9.20158 30.8322 9.73704 30.8171 10.2597 30.8171C10.2597 29.8897 10.2597 29.0481 10.2597 28.2044C9.64142 28.2044 9.06347 28.2044 8.4154 28.2044ZM13.7763 28.2194C13.1261 28.2194 12.5354 28.2194 11.9256 28.2194C11.9256 29.0846 11.9256 29.9154 11.9256 30.7806C12.5545 30.7806 13.1601 30.7806 13.7763 30.7806C13.7763 29.9133 13.7763 29.0803 13.7763 28.2194Z" fill="#5C5C5C"/>
<path d="M11.1182 41.3583C10.1641 41.3583 9.21008 41.3669 8.25604 41.3562C7.35724 41.3476 6.84304 40.8431 6.82391 39.9285C6.80479 38.9302 6.80479 37.9298 6.82391 36.9293C6.84091 36.0362 7.32962 35.5274 8.21354 35.5188C10.1386 35.4995 12.0658 35.4995 13.9909 35.5188C14.9067 35.5274 15.3806 36.0448 15.3869 36.968C15.3933 37.9491 15.3954 38.9302 15.3869 39.9135C15.3806 40.8259 14.8749 41.3454 13.9782 41.3562C13.0263 41.3669 12.0722 41.3583 11.1182 41.3583ZM10.2767 37.1633C9.64142 37.1633 9.05072 37.1633 8.44515 37.1633C8.44515 38.035 8.44515 38.8637 8.44515 39.7203C9.0656 39.7203 9.6563 39.7203 10.2767 39.7203C10.2767 38.8658 10.2767 38.035 10.2767 37.1633ZM13.7721 37.1655C13.141 37.1655 12.5376 37.1655 11.932 37.1655C11.932 38.0371 11.932 38.8658 11.932 39.7074C12.5652 39.7074 13.1686 39.7074 13.7721 39.7074C13.7721 38.84 13.7721 38.0113 13.7721 37.1655Z" fill="#5C5C5C"/>
<path d="M27.1457 27.7772C24.9401 27.7686 23.1723 25.9631 23.1935 23.741C23.2148 21.5362 24.9741 19.765 27.1521 19.7564C29.3449 19.7479 31.1319 21.5534 31.1297 23.7754C31.1319 25.9996 29.3534 27.7836 27.1457 27.7772ZM27.1181 26.1649C28.4588 26.1842 29.5255 25.1365 29.5361 23.7904C29.5467 22.4722 28.5183 21.4009 27.2073 21.3687C25.8921 21.3344 24.7999 22.4121 24.7893 23.7518C24.7787 25.0785 25.8092 26.1455 27.1181 26.1649Z" fill="#5C5C5C"/>
<path d="M43.1816 26.5749C44.1356 26.5749 45.0897 26.5685 46.0437 26.5771C46.9765 26.5857 47.4865 27.088 47.5013 28.0348C47.5162 29.0159 47.5183 29.9992 47.5013 30.9803C47.4865 31.9013 46.9977 32.4166 46.0841 32.4252C44.176 32.4466 42.2658 32.4466 40.3577 32.4252C39.4164 32.4144 38.9404 31.8928 38.9362 30.9395C38.9319 29.9584 38.9277 28.9751 38.9383 27.994C38.9468 27.116 39.4546 26.5921 40.3194 26.5792C41.2735 26.5642 42.2275 26.5749 43.1816 26.5749ZM42.4018 28.2152C41.7558 28.2152 41.1651 28.2152 40.568 28.2152C40.568 29.0889 40.568 29.9327 40.568 30.7828C41.197 30.7828 41.7877 30.7828 42.4018 30.7828C42.4018 29.9176 42.4018 29.0868 42.4018 28.2152ZM44.0442 30.8193C44.5967 30.8193 45.1024 30.8343 45.6081 30.8064C45.7122 30.8 45.8928 30.639 45.895 30.5467C45.9183 29.7716 45.9077 28.9966 45.9077 28.2152C45.2448 28.2152 44.6562 28.2152 44.0421 28.2152C44.0442 29.0739 44.0442 29.9026 44.0442 30.8193Z" fill="#5C5C5C"/>
<path d="M43.2197 41.3583C42.2657 41.3583 41.3116 41.3669 40.3576 41.3562C39.4566 41.3454 38.9446 40.8302 38.9361 39.9264C38.9276 38.9281 38.9276 37.9276 38.9361 36.9272C38.9446 36.0641 39.4141 35.5339 40.2662 35.5231C42.2274 35.4974 44.1886 35.4995 46.1498 35.521C46.9976 35.5317 47.48 36.0491 47.4991 36.9164C47.5203 37.9341 47.5225 38.9517 47.4991 39.9672C47.4778 40.8452 46.9551 41.3433 46.0818 41.354C45.1278 41.3669 44.1737 41.3583 43.2197 41.3583ZM40.5637 37.1547C40.5637 38.0285 40.5637 38.8701 40.5637 39.7203C41.1884 39.7203 41.7791 39.7203 42.3868 39.7203C42.3868 38.8529 42.3868 38.0135 42.3868 37.1547C41.7578 37.1547 41.1671 37.1547 40.5637 37.1547ZM45.8821 39.7267C45.8821 38.8508 45.8821 38.0221 45.8821 37.1569C45.2616 37.1569 44.6709 37.1569 44.0569 37.1569C44.0569 38.0221 44.0569 38.8637 44.0569 39.7267C44.6688 39.7267 45.2468 39.7267 45.8821 39.7267Z" fill="#5C5C5C"/>
</svg>
