<svg width="404" height="311" viewBox="0 0 404 311" fill="none" xmlns="http://www.w3.org/2000/svg">
<g filter="url(#filter0_d_494_307)">
<rect x="20" y="43.335" width="343.503" height="222.389" rx="8" fill="#F2F4F8"/>
</g>
<rect x="40.8816" y="78.8337" width="62.6448" height="62.6448" rx="8" fill="#0148A9"/>
<path d="M125.866 90.4461C127.186 90.4461 128.344 90.7041 129.34 91.2201C130.348 91.7361 131.122 92.4741 131.662 93.4341C132.214 94.3821 132.49 95.4861 132.49 96.7461C132.49 98.0061 132.214 99.1101 131.662 100.058C131.122 100.994 130.348 101.72 129.34 102.236C128.344 102.752 127.186 103.01 125.866 103.01H121.474V90.4461H125.866ZM125.776 100.868C127.096 100.868 128.116 100.508 128.836 99.7881C129.556 99.0681 129.916 98.0541 129.916 96.7461C129.916 95.4381 129.556 94.4181 128.836 93.6861C128.116 92.9421 127.096 92.5701 125.776 92.5701H123.994V100.868H125.776ZM133.728 97.9881C133.728 96.9801 133.926 96.0861 134.322 95.3061C134.73 94.5261 135.276 93.9261 135.96 93.5061C136.656 93.0861 137.43 92.8761 138.282 92.8761C139.026 92.8761 139.674 93.0261 140.226 93.3261C140.79 93.6261 141.24 94.0041 141.576 94.4601V93.0381H144.114V103.01H141.576V101.552C141.252 102.02 140.802 102.41 140.226 102.722C139.662 103.022 139.008 103.172 138.264 103.172C137.424 103.172 136.656 102.956 135.96 102.524C135.276 102.092 134.73 101.486 134.322 100.706C133.926 99.9141 133.728 99.0081 133.728 97.9881ZM141.576 98.0241C141.576 97.4121 141.456 96.8901 141.216 96.4581C140.976 96.0141 140.652 95.6781 140.244 95.4501C139.836 95.2101 139.398 95.0901 138.93 95.0901C138.462 95.0901 138.03 95.2041 137.634 95.4321C137.238 95.6601 136.914 95.9961 136.662 96.4401C136.422 96.8721 136.302 97.3881 136.302 97.9881C136.302 98.5881 136.422 99.1161 136.662 99.5721C136.914 100.016 137.238 100.358 137.634 100.598C138.042 100.838 138.474 100.958 138.93 100.958C139.398 100.958 139.836 100.844 140.244 100.616C140.652 100.376 140.976 100.04 141.216 99.6081C141.456 99.1641 141.576 98.6361 141.576 98.0241ZM149.509 95.1081V99.9321C149.509 100.268 149.587 100.514 149.743 100.67C149.911 100.814 150.187 100.886 150.571 100.886H151.741V103.01H150.157C148.033 103.01 146.971 101.978 146.971 99.9141V95.1081H145.783V93.0381H146.971V90.5721H149.509V93.0381H151.741V95.1081H149.509ZM152.906 97.9881C152.906 96.9801 153.104 96.0861 153.5 95.3061C153.908 94.5261 154.454 93.9261 155.138 93.5061C155.834 93.0861 156.608 92.8761 157.46 92.8761C158.204 92.8761 158.852 93.0261 159.404 93.3261C159.968 93.6261 160.418 94.0041 160.754 94.4601V93.0381H163.292V103.01H160.754V101.552C160.43 102.02 159.98 102.41 159.404 102.722C158.84 103.022 158.186 103.172 157.442 103.172C156.602 103.172 155.834 102.956 155.138 102.524C154.454 102.092 153.908 101.486 153.5 100.706C153.104 99.9141 152.906 99.0081 152.906 97.9881ZM160.754 98.0241C160.754 97.4121 160.634 96.8901 160.394 96.4581C160.154 96.0141 159.83 95.6781 159.422 95.4501C159.014 95.2101 158.576 95.0901 158.108 95.0901C157.64 95.0901 157.208 95.2041 156.812 95.4321C156.416 95.6601 156.092 95.9961 155.84 96.4401C155.6 96.8721 155.48 97.3881 155.48 97.9881C155.48 98.5881 155.6 99.1161 155.84 99.5721C156.092 100.016 156.416 100.358 156.812 100.598C157.22 100.838 157.652 100.958 158.108 100.958C158.576 100.958 159.014 100.844 159.422 100.616C159.83 100.376 160.154 100.04 160.394 99.6081C160.634 99.1641 160.754 98.6361 160.754 98.0241ZM177.746 100.616H172.742L171.914 103.01H169.268L173.786 90.4281H176.72L181.238 103.01H178.574L177.746 100.616ZM177.062 98.6001L175.244 93.3441L173.426 98.6001H177.062ZM188.453 92.8941C189.641 92.8941 190.601 93.2721 191.333 94.0281C192.065 94.7721 192.431 95.8161 192.431 97.1601V103.01H189.911V97.5021C189.911 96.7101 189.713 96.1041 189.317 95.6841C188.921 95.2521 188.381 95.0361 187.697 95.0361C187.001 95.0361 186.449 95.2521 186.041 95.6841C185.645 96.1041 185.447 96.7101 185.447 97.5021V103.01H182.927V93.0381H185.447V94.2801C185.783 93.8481 186.209 93.5121 186.725 93.2721C187.253 93.0201 187.829 92.8941 188.453 92.8941ZM194.179 97.9881C194.179 96.9801 194.377 96.0861 194.773 95.3061C195.181 94.5261 195.727 93.9261 196.411 93.5061C197.107 93.0861 197.881 92.8761 198.733 92.8761C199.477 92.8761 200.125 93.0261 200.677 93.3261C201.241 93.6261 201.691 94.0041 202.027 94.4601V93.0381H204.565V103.01H202.027V101.552C201.703 102.02 201.253 102.41 200.677 102.722C200.113 103.022 199.459 103.172 198.715 103.172C197.875 103.172 197.107 102.956 196.411 102.524C195.727 102.092 195.181 101.486 194.773 100.706C194.377 99.9141 194.179 99.0081 194.179 97.9881ZM202.027 98.0241C202.027 97.4121 201.907 96.8901 201.667 96.4581C201.427 96.0141 201.103 95.6781 200.695 95.4501C200.287 95.2101 199.849 95.0901 199.381 95.0901C198.913 95.0901 198.481 95.2041 198.085 95.4321C197.689 95.6601 197.365 95.9961 197.113 96.4401C196.873 96.8721 196.753 97.3881 196.753 97.9881C196.753 98.5881 196.873 99.1161 197.113 99.5721C197.365 100.016 197.689 100.358 198.085 100.598C198.493 100.838 198.925 100.958 199.381 100.958C199.849 100.958 200.287 100.844 200.695 100.616C201.103 100.376 201.427 100.04 201.667 99.6081C201.907 99.1641 202.027 98.6361 202.027 98.0241ZM209.546 89.6901V103.01H207.026V89.6901H209.546ZM221.576 93.0381L215.402 107.726H212.72L214.88 102.758L210.884 93.0381H213.71L216.284 100.004L218.894 93.0381H221.576ZM226.751 103.172C225.935 103.172 225.203 103.028 224.555 102.74C223.907 102.44 223.391 102.038 223.007 101.534C222.635 101.03 222.431 100.472 222.395 99.8601H224.933C224.981 100.244 225.167 100.562 225.491 100.814C225.827 101.066 226.241 101.192 226.733 101.192C227.213 101.192 227.585 101.096 227.849 100.904C228.125 100.712 228.263 100.466 228.263 100.166C228.263 99.8421 228.095 99.6021 227.759 99.4461C227.435 99.2781 226.913 99.0981 226.193 98.9061C225.449 98.7261 224.837 98.5401 224.357 98.3481C223.889 98.1561 223.481 97.8621 223.133 97.4661C222.797 97.0701 222.629 96.5361 222.629 95.8641C222.629 95.3121 222.785 94.8081 223.097 94.3521C223.421 93.8961 223.877 93.5361 224.465 93.2721C225.065 93.0081 225.767 92.8761 226.571 92.8761C227.759 92.8761 228.707 93.1761 229.415 93.7761C230.123 94.3641 230.513 95.1621 230.585 96.1701H228.173C228.137 95.7741 227.969 95.4621 227.669 95.2341C227.381 94.9941 226.991 94.8741 226.499 94.8741C226.043 94.8741 225.689 94.9581 225.437 95.1261C225.197 95.2941 225.077 95.5281 225.077 95.8281C225.077 96.1641 225.245 96.4221 225.581 96.6021C225.917 96.7701 226.439 96.9441 227.147 97.1241C227.867 97.3041 228.461 97.4901 228.929 97.6821C229.397 97.8741 229.799 98.1741 230.135 98.5821C230.483 98.9781 230.663 99.5061 230.675 100.166C230.675 100.742 230.513 101.258 230.189 101.714C229.877 102.17 229.421 102.53 228.821 102.794C228.233 103.046 227.543 103.172 226.751 103.172ZM235.677 95.1081V99.9321C235.677 100.268 235.755 100.514 235.911 100.67C236.079 100.814 236.355 100.886 236.739 100.886H237.909V103.01H236.325C234.201 103.01 233.139 101.978 233.139 99.9141V95.1081H231.951V93.0381H233.139V90.5721H235.677V93.0381H237.909V95.1081H235.677Z" fill="#0E2C40"/>
<path d="M154.768 130.377H147.993V129.16L150.57 126.569C151.331 125.79 151.835 125.238 152.081 124.915C152.332 124.587 152.514 124.279 152.628 123.992C152.742 123.705 152.799 123.397 152.799 123.069C152.799 122.618 152.662 122.262 152.389 122.003C152.12 121.743 151.746 121.613 151.268 121.613C150.885 121.613 150.513 121.684 150.153 121.825C149.798 121.966 149.385 122.221 148.916 122.59L148.048 121.531C148.604 121.061 149.144 120.729 149.668 120.533C150.192 120.337 150.75 120.239 151.343 120.239C152.272 120.239 153.018 120.483 153.578 120.97C154.139 121.453 154.419 122.105 154.419 122.925C154.419 123.377 154.337 123.805 154.173 124.211C154.013 124.616 153.765 125.035 153.428 125.468C153.095 125.897 152.539 126.478 151.76 127.212L150.023 128.893V128.962H154.768V130.377ZM161.208 130.377H159.602V123.923C159.602 123.153 159.62 122.543 159.656 122.091C159.551 122.201 159.421 122.322 159.267 122.454C159.116 122.586 158.606 123.005 157.735 123.712L156.929 122.693L159.868 120.382H161.208V130.377ZM172.119 128.196H170.772V130.377H169.207V128.196H164.641V126.959L169.207 120.355H170.772V126.863H172.119V128.196ZM169.207 126.863V124.354C169.207 123.461 169.23 122.729 169.275 122.16H169.221C169.093 122.461 168.893 122.825 168.619 123.254L166.138 126.863H169.207ZM176.878 124.135C177.885 124.135 178.683 124.402 179.27 124.935C179.858 125.468 180.152 126.195 180.152 127.116C180.152 128.182 179.817 129.016 179.147 129.618C178.482 130.215 177.534 130.513 176.304 130.513C175.187 130.513 174.31 130.333 173.672 129.973V128.517C174.041 128.727 174.465 128.889 174.943 129.003C175.422 129.116 175.866 129.173 176.276 129.173C177.001 129.173 177.552 129.012 177.931 128.688C178.309 128.365 178.498 127.891 178.498 127.266C178.498 126.072 177.737 125.475 176.215 125.475C176.001 125.475 175.736 125.498 175.422 125.544C175.107 125.585 174.832 125.632 174.595 125.687L173.877 125.263L174.26 120.382H179.455V121.811H175.675L175.449 124.286C175.609 124.258 175.802 124.227 176.03 124.19C176.263 124.154 176.545 124.135 176.878 124.135ZM188.46 125.031H189.595C190.356 125.031 190.907 124.89 191.249 124.607C191.591 124.325 191.762 123.905 191.762 123.349C191.762 122.784 191.577 122.379 191.208 122.132C190.839 121.886 190.283 121.763 189.54 121.763H188.46V125.031ZM188.46 126.384V130.377H186.826V120.382H189.649C190.939 120.382 191.894 120.624 192.514 121.107C193.133 121.59 193.443 122.319 193.443 123.295C193.443 124.539 192.796 125.425 191.502 125.954L194.325 130.377H192.466L190.073 126.384H188.46ZM199.412 130.513C198.236 130.513 197.316 130.172 196.65 129.488C195.99 128.8 195.659 127.854 195.659 126.651C195.659 125.416 195.967 124.445 196.582 123.739C197.197 123.033 198.043 122.679 199.118 122.679C200.116 122.679 200.905 122.982 201.483 123.589C202.062 124.195 202.352 125.029 202.352 126.09V126.959H197.313C197.336 127.692 197.534 128.257 197.908 128.654C198.282 129.046 198.808 129.242 199.487 129.242C199.934 129.242 200.349 129.201 200.731 129.119C201.119 129.032 201.533 128.891 201.976 128.695V130.001C201.584 130.187 201.187 130.32 200.786 130.397C200.385 130.475 199.927 130.513 199.412 130.513ZM199.118 123.896C198.608 123.896 198.198 124.058 197.888 124.381C197.582 124.705 197.4 125.177 197.341 125.797H200.772C200.763 125.172 200.613 124.7 200.321 124.381C200.03 124.058 199.629 123.896 199.118 123.896ZM206.399 130.377L203.528 122.816H205.224L206.762 127.212C207.026 127.95 207.185 128.547 207.24 129.003H207.295C207.336 128.674 207.495 128.077 207.773 127.212L209.311 122.816H211.02L208.136 130.377H206.399ZM214.275 130.377H212.669V122.816H214.275V130.377ZM212.573 120.813C212.573 120.526 212.651 120.305 212.806 120.15C212.965 119.995 213.191 119.918 213.482 119.918C213.765 119.918 213.984 119.995 214.139 120.15C214.298 120.305 214.378 120.526 214.378 120.813C214.378 121.087 214.298 121.303 214.139 121.463C213.984 121.617 213.765 121.695 213.482 121.695C213.191 121.695 212.965 121.617 212.806 121.463C212.651 121.303 212.573 121.087 212.573 120.813ZM220.381 130.513C219.205 130.513 218.284 130.172 217.619 129.488C216.958 128.8 216.628 127.854 216.628 126.651C216.628 125.416 216.935 124.445 217.551 123.739C218.166 123.033 219.011 122.679 220.087 122.679C221.085 122.679 221.873 122.982 222.452 123.589C223.031 124.195 223.32 125.029 223.32 126.09V126.959H218.282C218.305 127.692 218.503 128.257 218.877 128.654C219.251 129.046 219.777 129.242 220.456 129.242C220.903 129.242 221.317 129.201 221.7 129.119C222.088 129.032 222.502 128.891 222.944 128.695V130.001C222.552 130.187 222.156 130.32 221.755 130.397C221.354 130.475 220.896 130.513 220.381 130.513ZM220.087 123.896C219.576 123.896 219.166 124.058 218.856 124.381C218.551 124.705 218.369 125.177 218.31 125.797H221.741C221.732 125.172 221.582 124.7 221.29 124.381C220.998 124.058 220.597 123.896 220.087 123.896ZM231.846 130.377L230.868 126.849C230.75 126.476 230.535 125.607 230.226 124.245H230.164C229.9 125.475 229.69 126.348 229.535 126.863L228.53 130.377H226.753L224.634 122.816H226.274L227.238 126.542C227.457 127.462 227.612 128.251 227.703 128.907H227.744C227.79 128.574 227.858 128.194 227.949 127.765C228.045 127.332 228.127 127.009 228.195 126.795L229.344 122.816H231.107L232.222 126.795C232.29 127.018 232.374 127.36 232.475 127.82C232.579 128.28 232.641 128.638 232.659 128.893H232.714C232.782 128.333 232.942 127.549 233.192 126.542L234.17 122.816H235.783L233.65 130.377H231.846ZM242.668 128.223C242.668 128.962 242.399 129.529 241.861 129.925C241.324 130.317 240.553 130.513 239.551 130.513C238.544 130.513 237.735 130.361 237.124 130.055V128.668C238.013 129.078 238.84 129.283 239.605 129.283C240.594 129.283 241.089 128.984 241.089 128.387C241.089 128.196 241.034 128.036 240.925 127.909C240.815 127.781 240.635 127.649 240.385 127.512C240.134 127.376 239.785 127.221 239.339 127.047C238.468 126.71 237.878 126.373 237.568 126.036C237.263 125.699 237.11 125.261 237.11 124.723C237.11 124.076 237.37 123.575 237.89 123.219C238.414 122.859 239.125 122.679 240.022 122.679C240.911 122.679 241.752 122.859 242.545 123.219L242.025 124.429C241.21 124.092 240.524 123.923 239.968 123.923C239.12 123.923 238.696 124.165 238.696 124.648C238.696 124.885 238.806 125.086 239.024 125.25C239.248 125.414 239.731 125.639 240.474 125.926C241.098 126.168 241.551 126.389 241.834 126.589C242.116 126.79 242.326 127.022 242.463 127.287C242.6 127.547 242.668 127.859 242.668 128.223Z" fill="#0E2C40"/>
<path fill-rule="evenodd" clip-rule="evenodd" d="M138.887 124.773C138.887 129.966 134.703 134.19 129.561 134.19C124.419 134.19 120.236 129.966 120.236 124.773C120.236 119.581 124.419 115.356 129.561 115.356C134.703 115.356 138.887 119.581 138.887 124.773ZM137.245 124.773C137.245 120.495 133.798 117.015 129.561 117.015C125.324 117.015 121.878 120.495 121.878 124.773C121.878 129.052 125.324 132.532 129.561 132.532C133.798 132.532 137.245 129.052 137.245 124.773Z" fill="#F98149"/>
<path fill-rule="evenodd" clip-rule="evenodd" d="M134.885 123.449C135.029 123.898 134.911 124.385 134.575 124.714L132.956 126.308L133.338 128.56C133.418 129.026 133.23 129.49 132.851 129.768C132.471 130.047 131.978 130.082 131.562 129.862L129.561 128.799L127.559 129.862C127.379 129.958 127.183 130.004 126.988 130.004C126.735 130.004 126.485 129.925 126.269 129.767C125.89 129.488 125.704 129.026 125.784 128.558L126.165 126.308L124.547 124.714C124.209 124.383 124.093 123.898 124.237 123.447C124.381 122.997 124.76 122.675 125.224 122.607L127.463 122.279L128.464 120.23C128.672 119.804 129.092 119.541 129.561 119.541C130.03 119.541 130.451 119.806 130.657 120.23L131.659 122.279L133.896 122.607C134.361 122.675 134.741 122.997 134.885 123.449ZM132.821 124.125L131.205 123.887C130.807 123.828 130.462 123.576 130.285 123.213L129.561 121.731L128.838 123.211C128.66 123.576 128.315 123.828 127.917 123.887L126.3 124.125L127.47 125.276C127.758 125.56 127.89 125.969 127.822 126.371L127.545 127.996L128.992 127.228C129.347 127.038 129.774 127.038 130.13 127.228L131.577 127.996L131.3 126.369C131.232 125.969 131.364 125.56 131.652 125.276L132.821 124.125Z" fill="#F98149"/>
<g clip-path="url(#clip0_494_307)">
<path d="M73.2967 117.966C73.6188 118.146 73.9529 118.326 74.2632 118.518C75.1441 119.049 75.9891 119.639 76.7928 120.283C75.9943 120.94 75.1488 121.538 74.2632 122.071C73.9529 122.263 73.6188 122.432 73.2847 122.624C73.5766 121.878 73.7263 121.084 73.7262 120.283C73.7255 119.49 73.5799 118.705 73.2967 117.966ZM61.9967 117.966C61.7135 118.705 61.5679 119.49 61.5672 120.283C61.5731 121.083 61.7226 121.876 62.0087 122.624C61.6746 122.432 61.3404 122.263 61.0302 122.071C60.1458 121.542 59.304 120.944 58.5125 120.283C59.3074 119.644 60.1491 119.066 61.0302 118.554C61.3404 118.326 61.6746 118.146 61.9967 117.966ZM67.6527 116.153C68.7046 116.21 69.6947 116.67 70.4193 117.44C71.1439 118.209 71.5478 119.229 71.5478 120.289C71.5478 121.348 71.1439 122.368 70.4193 123.137C69.6947 123.907 68.7046 124.367 67.6527 124.424C66.6007 124.367 65.6106 123.907 64.886 123.137C64.1614 122.368 63.7576 121.348 63.7576 120.289C63.7576 119.229 64.1614 118.209 64.886 117.44C65.6106 116.67 66.6007 116.21 67.6527 116.153ZM75.3968 107.425H77.6162V110.15H75.3968V107.425ZM66.531 106.441H68.7385V110.15H66.531V106.441ZM70.9818 103.475H73.1893V110.15H70.9818V103.475ZM79.8356 100.126H82.055V110.15H79.8237L79.8356 100.126ZM78.7139 97.9048C78.4282 97.9272 78.16 98.0524 77.9584 98.2574C77.7569 98.4624 77.6354 98.7336 77.6162 99.0213V105.204H75.3968V102.359C75.3968 102.063 75.2798 101.779 75.0717 101.569C74.8636 101.36 74.5814 101.242 74.287 101.242H69.8601C69.5723 101.262 69.3012 101.386 69.0972 101.591C68.8932 101.796 68.77 102.069 68.7504 102.359V104.22H65.4213C65.2761 104.218 65.1321 104.245 64.9975 104.3C64.863 104.355 64.7405 104.436 64.6373 104.539C64.5341 104.642 64.4522 104.764 64.3963 104.899C64.3404 105.033 64.3116 105.178 64.3116 105.324V111.267C64.3116 111.413 64.3404 111.557 64.3963 111.692C64.4522 111.827 64.5341 111.949 64.6373 112.052C64.7405 112.155 64.863 112.236 64.9975 112.291C65.1321 112.345 65.2761 112.373 65.4213 112.371H83.1409C83.4331 112.371 83.7136 112.255 83.9213 112.048C84.1291 111.842 84.2474 111.561 84.2506 111.267V99.0213C84.2506 98.7252 84.1336 98.4412 83.9255 98.2318C83.7174 98.0224 83.4352 97.9048 83.1409 97.9048H78.7139ZM66.543 95.6718H82.055C82.6382 95.6671 83.2166 95.7789 83.7565 96.0009C84.2964 96.2229 84.7871 96.5506 85.2001 96.965C85.6131 97.3794 85.9401 97.8722 86.1622 98.4148C86.3843 98.9574 86.497 99.539 86.4938 100.126L86.6848 114.712C86.6895 115.297 86.5786 115.877 86.3584 116.418C86.1382 116.959 85.8132 117.45 85.4023 117.864C84.9914 118.277 84.5028 118.604 83.965 118.826C83.4271 119.047 82.8509 119.159 82.2698 119.154H79.0958C77.9233 118.224 76.696 117.366 75.4206 116.585C73.1415 115.204 70.3136 113.752 67.6527 113.752C65.7063 113.857 63.8109 114.416 62.1161 115.384V100.126C62.1433 98.9532 62.6185 97.8362 63.4429 97.0068C64.2672 96.1774 65.3774 95.6993 66.543 95.6718ZM82.055 93.4509H66.543C64.7833 93.454 63.0964 94.1579 61.851 95.4087C60.6056 96.6594 59.9029 98.3554 59.8966 100.126V116.597C58.5133 117.458 57.1787 118.396 55.8993 119.406C55.7739 119.512 55.673 119.644 55.6038 119.794C55.5346 119.943 55.4987 120.106 55.4987 120.271C55.4987 120.435 55.5346 120.598 55.6038 120.747C55.673 120.897 55.7739 121.029 55.8993 121.135C57.1732 122.157 58.5082 123.099 59.8966 123.956C62.1876 125.361 65.0037 126.837 67.6765 126.837C70.3494 126.837 73.1654 125.361 75.4445 123.956C76.7172 123.181 77.9406 122.327 79.1077 121.399H82.2698C83.141 121.396 84.0031 121.22 84.8068 120.882C85.6106 120.543 86.3402 120.049 86.954 119.427C87.5679 118.805 88.0539 118.067 88.3844 117.256C88.715 116.445 88.8834 115.577 88.8803 114.7L88.6775 100.126C88.6743 98.3565 87.9743 96.6605 86.7308 95.4094C85.4873 94.1583 83.8017 93.454 82.0431 93.4509H82.055Z" fill="white"/>
</g>
<rect x="40.8816" y="172.801" width="62.6448" height="62.6448" rx="8" fill="#FF914C"/>
<g clip-path="url(#clip1_494_307)">
<path d="M60.1148 215.181H61.2009L62.4351 215.329V218.624H61.275C61.1227 218.628 60.9714 218.6 60.83 218.544C60.6885 218.488 60.5598 218.404 60.4516 218.296C60.3434 218.189 60.2578 218.062 60.1999 217.921C60.1421 217.78 60.1131 217.629 60.1148 217.477V215.181ZM75.0613 214.021C74.8017 214.023 74.5506 214.114 74.3491 214.277C74.1475 214.441 74.0074 214.668 73.9515 214.922C73.8957 215.175 73.9274 215.44 74.0415 215.673C74.1557 215.906 74.3455 216.094 74.58 216.205L76.8756 217.353C77.011 217.421 77.1584 217.462 77.3095 217.473C77.4606 217.484 77.6124 217.465 77.7562 217.418C77.9 217.37 78.0331 217.295 78.1478 217.196C78.2624 217.097 78.3565 216.976 78.4246 216.841C78.4927 216.706 78.5334 216.558 78.5445 216.407C78.5556 216.256 78.5368 216.104 78.4893 215.96C78.4417 215.817 78.3663 215.684 78.2673 215.569C78.1683 215.454 78.0477 215.36 77.9124 215.292L75.6044 214.144C75.4351 214.062 75.2494 214.02 75.0613 214.021ZM75.0613 209.75C74.7758 209.78 74.5114 209.914 74.3192 210.127C74.127 210.341 74.0206 210.617 74.0206 210.904C74.0206 211.191 74.127 211.468 74.3192 211.681C74.5114 211.894 74.7758 212.029 75.0613 212.058H77.394C77.6795 212.029 77.9439 211.894 78.1361 211.681C78.3283 211.468 78.4347 211.191 78.4347 210.904C78.4347 210.617 78.3283 210.341 78.1361 210.127C77.9439 209.914 77.6795 209.78 77.394 209.75H75.0613ZM57.7821 209.417H60.1148V212.873H57.8068L57.7821 209.417ZM69.3098 208.405V213.873L62.3981 213.009V209.306L69.3098 208.405ZM77.3817 204.801C77.1978 204.802 77.0164 204.844 76.8509 204.925L74.58 206.122C74.4446 206.189 74.3239 206.282 74.2246 206.396C74.1253 206.51 74.0494 206.643 74.0013 206.786C73.9531 206.929 73.9337 207.08 73.944 207.231C73.9544 207.382 73.9943 207.529 74.0616 207.665C74.1288 207.8 74.2221 207.921 74.336 208.02C74.45 208.119 74.5824 208.195 74.7256 208.243C74.8689 208.291 75.0202 208.311 75.171 208.3C75.3218 208.29 75.469 208.25 75.6044 208.183L77.9124 207.035C78.1914 206.952 78.4285 206.766 78.5755 206.515C78.7225 206.263 78.7685 205.965 78.7041 205.681C78.6398 205.397 78.47 205.149 78.229 204.985C77.9881 204.822 77.694 204.756 77.4063 204.801H77.3817ZM67.1499 201.358H62.3364C62.1857 201.363 62.0375 201.399 61.9004 201.462C61.7633 201.524 61.64 201.614 61.5374 201.724C61.4348 201.835 61.3551 201.965 61.3026 202.106C61.2502 202.248 61.2261 202.398 61.2318 202.549C61.2374 202.699 61.2728 202.848 61.3357 202.985C61.3986 203.122 61.4879 203.245 61.5985 203.348C61.7091 203.45 61.8388 203.53 61.9803 203.582C62.1217 203.635 62.2721 203.659 62.4228 203.653H67.0265C67.1772 203.661 67.3281 203.64 67.4704 203.59C67.6128 203.539 67.7439 203.462 67.8562 203.361C67.9685 203.26 68.0599 203.138 68.125 203.002C68.1902 202.866 68.2279 202.718 68.236 202.567C68.2441 202.416 68.2225 202.266 68.1723 202.123C68.1221 201.981 68.0443 201.85 67.9435 201.737C67.8426 201.625 67.7206 201.534 67.5845 201.469C67.4483 201.403 67.3006 201.366 67.1499 201.358ZM74.2467 199.099L75.0737 200.457L74.4812 201.358H72.6792L74.2467 199.099ZM62.4228 197.865C62.1184 197.865 61.8264 197.986 61.6112 198.201C61.3959 198.416 61.275 198.708 61.275 199.013C61.275 199.317 61.3959 199.609 61.6112 199.824C61.8264 200.039 62.1184 200.16 62.4228 200.16H64.7185C65.0229 200.16 65.3149 200.039 65.5301 199.824C65.7454 199.609 65.8663 199.317 65.8663 199.013C65.8663 198.708 65.7454 198.416 65.5301 198.201C65.3149 197.986 65.0229 197.865 64.7185 197.865H62.4228ZM79.702 197.63L82.1705 201.333H77.2336L79.702 197.63ZM79.702 194.397C79.5146 194.405 79.3316 194.456 79.167 194.546C79.0023 194.636 78.8603 194.762 78.7517 194.915L76.4807 198.346L75.2464 196.396C75.1455 196.231 75.0041 196.094 74.8356 195.999C74.6672 195.904 74.4772 195.854 74.2837 195.853C74.0947 195.848 73.9073 195.89 73.739 195.976C73.5707 196.063 73.427 196.19 73.321 196.347C72.0868 198.173 70.7662 200.049 69.532 201.864C69.4156 202.036 69.3483 202.237 69.3374 202.445C69.3264 202.653 69.3722 202.86 69.4698 203.044C69.5675 203.228 69.7133 203.381 69.8916 203.489C70.07 203.596 70.2742 203.653 70.4823 203.653H84.3057C84.5575 203.675 84.8093 203.612 85.0221 203.476C85.2349 203.34 85.3968 203.137 85.4826 202.899C85.5684 202.662 85.5733 202.402 85.4966 202.161C85.42 201.921 85.266 201.712 85.0586 201.567L80.6647 195.014C80.5604 194.846 80.4175 194.706 80.2478 194.605C80.0781 194.504 79.8867 194.445 79.6897 194.434L79.702 194.397ZM81.8989 189.805C81.5945 189.82 81.3084 189.955 81.1036 190.181C80.8987 190.406 80.7919 190.704 80.8066 191.009C80.8214 191.313 80.9564 191.599 81.1821 191.804C81.4078 192.009 81.7056 192.116 82.01 192.101H84.3057C84.6101 192.101 84.9021 191.98 85.1173 191.765C85.3326 191.549 85.4535 191.257 85.4535 190.953C85.4535 190.649 85.3326 190.357 85.1173 190.141C84.9021 189.926 84.6101 189.805 84.3057 189.805H81.8989ZM77.2953 189.805C76.9908 189.82 76.7047 189.955 76.4999 190.181C76.295 190.406 76.1882 190.704 76.203 191.009C76.2177 191.313 76.3528 191.599 76.5784 191.804C76.8041 192.009 77.1019 192.116 77.4063 192.101H78.5665C78.8709 192.101 79.1629 191.98 79.3782 191.765C79.5934 191.549 79.7144 191.257 79.7144 190.953C79.7144 190.649 79.5934 190.357 79.3782 190.141C79.1629 189.926 78.8709 189.805 78.5665 189.805H77.2953ZM72.6916 189.805C72.3872 189.82 72.1011 189.955 71.8962 190.181C71.6914 190.406 71.5846 190.704 71.5993 191.009C71.614 191.313 71.7491 191.599 71.9748 191.804C72.2004 192.009 72.4982 192.116 72.8027 192.101H73.9505C74.2549 192.101 74.5469 191.98 74.7621 191.765C74.9774 191.549 75.0983 191.257 75.0983 190.953C75.0983 190.649 74.9774 190.357 74.7621 190.141C74.5469 189.926 74.2549 189.805 73.9505 189.805H72.6916ZM62.3364 189.842C62.032 189.857 61.7459 189.992 61.541 190.218C61.3362 190.443 61.2294 190.741 61.2441 191.046C61.2588 191.35 61.3939 191.636 61.6196 191.841C61.8453 192.046 62.1431 192.153 62.4475 192.138H63.5706C63.8751 192.138 64.167 192.017 64.3823 191.802C64.5975 191.586 64.7185 191.295 64.7185 190.99C64.7185 190.686 64.5975 190.394 64.3823 190.178C64.167 189.963 63.8751 189.842 63.5706 189.842H62.3364ZM62.4475 188.682H84.3057C84.6086 188.679 84.9092 188.736 85.1899 188.85C85.4706 188.964 85.7258 189.133 85.9406 189.346C86.1554 189.56 86.3256 189.814 86.4411 190.094C86.5567 190.375 86.6153 190.675 86.6137 190.978V216.329C86.6153 216.632 86.5567 216.932 86.4411 217.212C86.3256 217.492 86.1554 217.747 85.9406 217.96C85.7258 218.174 85.4706 218.343 85.1899 218.457C84.9092 218.571 84.6086 218.628 84.3057 218.624H64.7185V215.613L69.1987 216.181C69.5051 216.219 69.816 216.192 70.1113 216.102C70.4066 216.012 70.6796 215.861 70.9125 215.658C71.1454 215.455 71.333 215.206 71.463 214.926C71.593 214.646 71.6626 214.342 71.6672 214.033V212.54L72.4818 211.725C72.5908 211.619 72.6774 211.493 72.7366 211.353C72.7957 211.213 72.8262 211.062 72.8262 210.911C72.8262 210.759 72.7957 210.608 72.7366 210.468C72.6774 210.328 72.5908 210.202 72.4818 210.096L71.6672 209.294V208.257C71.6646 207.948 71.5963 207.642 71.4669 207.362C71.3375 207.081 71.1499 206.83 70.9166 206.627C70.6832 206.424 70.4094 206.273 70.1133 206.184C69.8171 206.095 69.5054 206.069 69.1987 206.109L61.2009 207.121H60.1148V190.978C60.1131 190.675 60.1718 190.375 60.2874 190.094C60.4029 189.814 60.5731 189.56 60.7879 189.346C61.0027 189.133 61.2579 188.964 61.5386 188.85C61.8193 188.736 62.1198 188.679 62.4228 188.682H62.4475ZM62.4228 186.374C61.2017 186.377 60.0313 186.863 59.1667 187.725C58.3021 188.588 57.8133 189.757 57.8068 190.978V207.121C57.1978 207.125 56.6145 207.367 56.1827 207.797C55.7509 208.226 55.5052 208.808 55.4988 209.417V212.873C55.5052 213.483 55.7504 214.066 56.1819 214.498C56.6133 214.929 57.1967 215.175 57.8068 215.181V217.477C57.8133 218.393 58.1812 219.27 58.8305 219.917C59.4799 220.565 60.3583 220.929 61.275 220.932H84.3057C85.5257 220.929 86.6947 220.443 87.5574 219.581C88.42 218.718 88.9061 217.549 88.9094 216.329V190.978C88.9061 189.758 88.42 188.589 87.5574 187.726C86.6947 186.863 85.5257 186.377 84.3057 186.374H62.4228Z" fill="white"/>
</g>
<path d="M138.268 184.413L134.758 196.977H131.788L129.43 188.031L126.964 196.977L124.012 196.995L120.628 184.413H123.328L125.542 194.169L128.098 184.413H130.906L133.318 194.115L135.55 184.413H138.268ZM149.683 191.775C149.683 192.135 149.659 192.459 149.611 192.747H142.321C142.381 193.467 142.633 194.031 143.077 194.439C143.521 194.847 144.067 195.051 144.715 195.051C145.651 195.051 146.317 194.649 146.713 193.845H149.431C149.143 194.805 148.591 195.597 147.775 196.221C146.959 196.833 145.957 197.139 144.769 197.139C143.809 197.139 142.945 196.929 142.177 196.509C141.421 196.077 140.827 195.471 140.395 194.691C139.975 193.911 139.765 193.011 139.765 191.991C139.765 190.959 139.975 190.053 140.395 189.273C140.815 188.493 141.403 187.893 142.159 187.473C142.915 187.053 143.785 186.843 144.769 186.843C145.717 186.843 146.563 187.047 147.307 187.455C148.063 187.863 148.645 188.445 149.053 189.201C149.473 189.945 149.683 190.803 149.683 191.775ZM147.073 191.055C147.061 190.407 146.827 189.891 146.371 189.507C145.915 189.111 145.357 188.913 144.697 188.913C144.073 188.913 143.545 189.105 143.113 189.489C142.693 189.861 142.435 190.383 142.339 191.055H147.073ZM154.543 188.463C154.867 187.983 155.311 187.593 155.875 187.293C156.451 186.993 157.105 186.843 157.837 186.843C158.689 186.843 159.457 187.053 160.141 187.473C160.837 187.893 161.383 188.493 161.779 189.273C162.187 190.041 162.391 190.935 162.391 191.955C162.391 192.975 162.187 193.881 161.779 194.673C161.383 195.453 160.837 196.059 160.141 196.491C159.457 196.923 158.689 197.139 157.837 197.139C157.093 197.139 156.439 196.995 155.875 196.707C155.323 196.407 154.879 196.023 154.543 195.555V196.977H152.023V183.657H154.543V188.463ZM159.817 191.955C159.817 191.355 159.691 190.839 159.439 190.407C159.199 189.963 158.875 189.627 158.467 189.399C158.071 189.171 157.639 189.057 157.171 189.057C156.715 189.057 156.283 189.177 155.875 189.417C155.479 189.645 155.155 189.981 154.903 190.425C154.663 190.869 154.543 191.391 154.543 191.991C154.543 192.591 154.663 193.113 154.903 193.557C155.155 194.001 155.479 194.343 155.875 194.583C156.283 194.811 156.715 194.925 157.171 194.925C157.639 194.925 158.071 194.805 158.467 194.565C158.875 194.325 159.199 193.983 159.439 193.539C159.691 193.095 159.817 192.567 159.817 191.955ZM168.538 197.139C167.722 197.139 166.99 196.995 166.342 196.707C165.694 196.407 165.178 196.005 164.794 195.501C164.422 194.997 164.218 194.439 164.182 193.827H166.72C166.768 194.211 166.954 194.529 167.278 194.781C167.614 195.033 168.028 195.159 168.52 195.159C169 195.159 169.372 195.063 169.636 194.871C169.912 194.679 170.05 194.433 170.05 194.133C170.05 193.809 169.882 193.569 169.546 193.413C169.222 193.245 168.7 193.065 167.98 192.873C167.236 192.693 166.624 192.507 166.144 192.315C165.676 192.123 165.268 191.829 164.92 191.433C164.584 191.037 164.416 190.503 164.416 189.831C164.416 189.279 164.572 188.775 164.884 188.319C165.208 187.863 165.664 187.503 166.252 187.239C166.852 186.975 167.554 186.843 168.358 186.843C169.546 186.843 170.494 187.143 171.202 187.743C171.91 188.331 172.3 189.129 172.372 190.137H169.96C169.924 189.741 169.756 189.429 169.456 189.201C169.168 188.961 168.778 188.841 168.286 188.841C167.83 188.841 167.476 188.925 167.224 189.093C166.984 189.261 166.864 189.495 166.864 189.795C166.864 190.131 167.032 190.389 167.368 190.569C167.704 190.737 168.226 190.911 168.934 191.091C169.654 191.271 170.248 191.457 170.716 191.649C171.184 191.841 171.586 192.141 171.922 192.549C172.27 192.945 172.45 193.473 172.462 194.133C172.462 194.709 172.3 195.225 171.976 195.681C171.664 196.137 171.208 196.497 170.608 196.761C170.02 197.013 169.33 197.139 168.538 197.139ZM176.308 185.817C175.864 185.817 175.492 185.679 175.192 185.403C174.904 185.115 174.76 184.761 174.76 184.341C174.76 183.921 174.904 183.573 175.192 183.297C175.492 183.009 175.864 182.865 176.308 182.865C176.752 182.865 177.118 183.009 177.406 183.297C177.706 183.573 177.856 183.921 177.856 184.341C177.856 184.761 177.706 185.115 177.406 185.403C177.118 185.679 176.752 185.817 176.308 185.817ZM177.55 187.005V196.977H175.03V187.005H177.55ZM183.474 189.075V193.899C183.474 194.235 183.552 194.481 183.708 194.637C183.876 194.781 184.152 194.853 184.536 194.853H185.706V196.977H184.122C181.998 196.977 180.936 195.945 180.936 193.881V189.075H179.748V187.005H180.936V184.539H183.474V187.005H185.706V189.075H183.474ZM197.289 191.775C197.289 192.135 197.265 192.459 197.217 192.747H189.927C189.987 193.467 190.239 194.031 190.683 194.439C191.127 194.847 191.673 195.051 192.321 195.051C193.257 195.051 193.923 194.649 194.319 193.845H197.037C196.749 194.805 196.197 195.597 195.381 196.221C194.565 196.833 193.563 197.139 192.375 197.139C191.415 197.139 190.551 196.929 189.783 196.509C189.027 196.077 188.433 195.471 188.001 194.691C187.581 193.911 187.371 193.011 187.371 191.991C187.371 190.959 187.581 190.053 188.001 189.273C188.421 188.493 189.009 187.893 189.765 187.473C190.521 187.053 191.391 186.843 192.375 186.843C193.323 186.843 194.169 187.047 194.913 187.455C195.669 187.863 196.251 188.445 196.659 189.201C197.079 189.945 197.289 190.803 197.289 191.775ZM194.679 191.055C194.667 190.407 194.433 189.891 193.977 189.507C193.521 189.111 192.963 188.913 192.303 188.913C191.679 188.913 191.151 189.105 190.719 189.489C190.299 189.861 190.041 190.383 189.945 191.055H194.679ZM208.809 184.413C210.129 184.413 211.287 184.671 212.283 185.187C213.291 185.703 214.065 186.441 214.605 187.401C215.157 188.349 215.433 189.453 215.433 190.713C215.433 191.973 215.157 193.077 214.605 194.025C214.065 194.961 213.291 195.687 212.283 196.203C211.287 196.719 210.129 196.977 208.809 196.977H204.417V184.413H208.809ZM208.719 194.835C210.039 194.835 211.059 194.475 211.779 193.755C212.499 193.035 212.859 192.021 212.859 190.713C212.859 189.405 212.499 188.385 211.779 187.653C211.059 186.909 210.039 186.537 208.719 186.537H206.937V194.835H208.719ZM227.089 191.775C227.089 192.135 227.065 192.459 227.017 192.747H219.727C219.787 193.467 220.039 194.031 220.483 194.439C220.927 194.847 221.473 195.051 222.121 195.051C223.057 195.051 223.723 194.649 224.119 193.845H226.837C226.549 194.805 225.997 195.597 225.181 196.221C224.365 196.833 223.363 197.139 222.175 197.139C221.215 197.139 220.351 196.929 219.583 196.509C218.827 196.077 218.233 195.471 217.801 194.691C217.381 193.911 217.171 193.011 217.171 191.991C217.171 190.959 217.381 190.053 217.801 189.273C218.221 188.493 218.809 187.893 219.565 187.473C220.321 187.053 221.191 186.843 222.175 186.843C223.123 186.843 223.969 187.047 224.713 187.455C225.469 187.863 226.051 188.445 226.459 189.201C226.879 189.945 227.089 190.803 227.089 191.775ZM224.479 191.055C224.467 190.407 224.233 189.891 223.777 189.507C223.321 189.111 222.763 188.913 222.103 188.913C221.479 188.913 220.951 189.105 220.519 189.489C220.099 189.861 219.841 190.383 219.745 191.055H224.479ZM233.245 197.139C232.429 197.139 231.697 196.995 231.049 196.707C230.401 196.407 229.885 196.005 229.501 195.501C229.129 194.997 228.925 194.439 228.889 193.827H231.427C231.475 194.211 231.661 194.529 231.985 194.781C232.321 195.033 232.735 195.159 233.227 195.159C233.707 195.159 234.079 195.063 234.343 194.871C234.619 194.679 234.757 194.433 234.757 194.133C234.757 193.809 234.589 193.569 234.253 193.413C233.929 193.245 233.407 193.065 232.687 192.873C231.943 192.693 231.331 192.507 230.851 192.315C230.383 192.123 229.975 191.829 229.627 191.433C229.291 191.037 229.123 190.503 229.123 189.831C229.123 189.279 229.279 188.775 229.591 188.319C229.915 187.863 230.371 187.503 230.959 187.239C231.559 186.975 232.261 186.843 233.065 186.843C234.253 186.843 235.201 187.143 235.909 187.743C236.617 188.331 237.007 189.129 237.079 190.137H234.667C234.631 189.741 234.463 189.429 234.163 189.201C233.875 188.961 233.485 188.841 232.993 188.841C232.537 188.841 232.183 188.925 231.931 189.093C231.691 189.261 231.571 189.495 231.571 189.795C231.571 190.131 231.739 190.389 232.075 190.569C232.411 190.737 232.933 190.911 233.641 191.091C234.361 191.271 234.955 191.457 235.423 191.649C235.891 191.841 236.293 192.141 236.629 192.549C236.977 192.945 237.157 193.473 237.169 194.133C237.169 194.709 237.007 195.225 236.683 195.681C236.371 196.137 235.915 196.497 235.315 196.761C234.727 197.013 234.037 197.139 233.245 197.139ZM241.015 185.817C240.571 185.817 240.199 185.679 239.899 185.403C239.611 185.115 239.467 184.761 239.467 184.341C239.467 183.921 239.611 183.573 239.899 183.297C240.199 183.009 240.571 182.865 241.015 182.865C241.459 182.865 241.825 183.009 242.113 183.297C242.413 183.573 242.563 183.921 242.563 184.341C242.563 184.761 242.413 185.115 242.113 185.403C241.825 185.679 241.459 185.817 241.015 185.817ZM242.257 187.005V196.977H239.737V187.005H242.257ZM249.153 186.843C249.897 186.843 250.551 186.993 251.115 187.293C251.679 187.581 252.123 187.959 252.447 188.427V187.005H254.985V197.049C254.985 197.973 254.799 198.795 254.427 199.515C254.055 200.247 253.497 200.823 252.753 201.243C252.009 201.675 251.109 201.891 250.053 201.891C248.637 201.891 247.473 201.561 246.561 200.901C245.661 200.241 245.151 199.341 245.031 198.201H247.533C247.665 198.657 247.947 199.017 248.379 199.281C248.823 199.557 249.357 199.695 249.981 199.695C250.713 199.695 251.307 199.473 251.763 199.029C252.219 198.597 252.447 197.937 252.447 197.049V195.501C252.123 195.969 251.673 196.359 251.097 196.671C250.533 196.983 249.885 197.139 249.153 197.139C248.313 197.139 247.545 196.923 246.849 196.491C246.153 196.059 245.601 195.453 245.193 194.673C244.797 193.881 244.599 192.975 244.599 191.955C244.599 190.947 244.797 190.053 245.193 189.273C245.601 188.493 246.147 187.893 246.831 187.473C247.527 187.053 248.301 186.843 249.153 186.843ZM252.447 191.991C252.447 191.379 252.327 190.857 252.087 190.425C251.847 189.981 251.523 189.645 251.115 189.417C250.707 189.177 250.269 189.057 249.801 189.057C249.333 189.057 248.901 189.171 248.505 189.399C248.109 189.627 247.785 189.963 247.533 190.407C247.293 190.839 247.173 191.355 247.173 191.955C247.173 192.555 247.293 193.083 247.533 193.539C247.785 193.983 248.109 194.325 248.505 194.565C248.913 194.805 249.345 194.925 249.801 194.925C250.269 194.925 250.707 194.811 251.115 194.583C251.523 194.343 251.847 194.007 252.087 193.575C252.327 193.131 252.447 192.603 252.447 191.991ZM263.472 186.861C264.66 186.861 265.62 187.239 266.352 187.995C267.084 188.739 267.45 189.783 267.45 191.127V196.977H264.93V191.469C264.93 190.677 264.732 190.071 264.336 189.651C263.94 189.219 263.4 189.003 262.716 189.003C262.02 189.003 261.468 189.219 261.06 189.651C260.664 190.071 260.466 190.677 260.466 191.469V196.977H257.946V187.005H260.466V188.247C260.802 187.815 261.228 187.479 261.744 187.239C262.272 186.987 262.848 186.861 263.472 186.861Z" fill="#0E2C40"/>
<path d="M154.768 224.344H147.993V223.127L150.57 220.536C151.331 219.757 151.835 219.205 152.081 218.882C152.332 218.554 152.514 218.246 152.628 217.959C152.742 217.672 152.799 217.364 152.799 217.036C152.799 216.585 152.662 216.23 152.389 215.97C152.12 215.71 151.746 215.58 151.268 215.58C150.885 215.58 150.513 215.651 150.153 215.792C149.798 215.933 149.385 216.189 148.916 216.558L148.048 215.498C148.604 215.029 149.144 214.696 149.668 214.5C150.192 214.304 150.75 214.206 151.343 214.206C152.272 214.206 153.018 214.45 153.578 214.938C154.139 215.421 154.419 216.072 154.419 216.893C154.419 217.344 154.337 217.772 154.173 218.178C154.013 218.583 153.765 219.003 153.428 219.436C153.095 219.864 152.539 220.445 151.76 221.179L150.023 222.86V222.929H154.768V224.344ZM161.208 224.344H159.602V217.891C159.602 217.121 159.62 216.51 159.656 216.059C159.551 216.168 159.421 216.289 159.267 216.421C159.116 216.553 158.606 216.972 157.735 217.679L156.929 216.66L159.868 214.35H161.208V224.344ZM172.119 222.163H170.772V224.344H169.207V222.163H164.641V220.926L169.207 214.322H170.772V220.83H172.119V222.163ZM169.207 220.83V218.321C169.207 217.428 169.23 216.697 169.275 216.127H169.221C169.093 216.428 168.893 216.792 168.619 217.221L166.138 220.83H169.207ZM176.878 218.103C177.885 218.103 178.683 218.369 179.27 218.902C179.858 219.436 180.152 220.162 180.152 221.083C180.152 222.149 179.817 222.983 179.147 223.585C178.482 224.182 177.534 224.481 176.304 224.481C175.187 224.481 174.31 224.301 173.672 223.94V222.484C174.041 222.694 174.465 222.856 174.943 222.97C175.422 223.084 175.866 223.141 176.276 223.141C177.001 223.141 177.552 222.979 177.931 222.655C178.309 222.332 178.498 221.858 178.498 221.233C178.498 220.039 177.737 219.442 176.215 219.442C176.001 219.442 175.736 219.465 175.422 219.511C175.107 219.552 174.832 219.6 174.595 219.654L173.877 219.231L174.26 214.35H179.455V215.778H175.675L175.449 218.253C175.609 218.226 175.802 218.194 176.03 218.157C176.263 218.121 176.545 218.103 176.878 218.103ZM188.46 218.998H189.595C190.356 218.998 190.907 218.857 191.249 218.574C191.591 218.292 191.762 217.872 191.762 217.316C191.762 216.751 191.577 216.346 191.208 216.1C190.839 215.854 190.283 215.731 189.54 215.731H188.46V218.998ZM188.46 220.352V224.344H186.826V214.35H189.649C190.939 214.35 191.894 214.591 192.514 215.074C193.133 215.557 193.443 216.287 193.443 217.262C193.443 218.506 192.796 219.392 191.502 219.921L194.325 224.344H192.466L190.073 220.352H188.46ZM199.412 224.481C198.236 224.481 197.316 224.139 196.65 223.455C195.99 222.767 195.659 221.821 195.659 220.618C195.659 219.383 195.967 218.412 196.582 217.706C197.197 217 198.043 216.647 199.118 216.647C200.116 216.647 200.905 216.95 201.483 217.556C202.062 218.162 202.352 218.996 202.352 220.058V220.926H197.313C197.336 221.66 197.534 222.225 197.908 222.621C198.282 223.013 198.808 223.209 199.487 223.209C199.934 223.209 200.349 223.168 200.731 223.086C201.119 222.999 201.533 222.858 201.976 222.662V223.968C201.584 224.155 201.187 224.287 200.786 224.364C200.385 224.442 199.927 224.481 199.412 224.481ZM199.118 217.863C198.608 217.863 198.198 218.025 197.888 218.349C197.582 218.672 197.4 219.144 197.341 219.764H200.772C200.763 219.139 200.613 218.668 200.321 218.349C200.03 218.025 199.629 217.863 199.118 217.863ZM206.399 224.344L203.528 216.783H205.224L206.762 221.179C207.026 221.917 207.185 222.514 207.24 222.97H207.295C207.336 222.642 207.495 222.045 207.773 221.179L209.311 216.783H211.02L208.136 224.344H206.399ZM214.275 224.344H212.669V216.783H214.275V224.344ZM212.573 214.78C212.573 214.493 212.651 214.272 212.806 214.117C212.965 213.962 213.191 213.885 213.482 213.885C213.765 213.885 213.984 213.962 214.139 214.117C214.298 214.272 214.378 214.493 214.378 214.78C214.378 215.054 214.298 215.27 214.139 215.43C213.984 215.585 213.765 215.662 213.482 215.662C213.191 215.662 212.965 215.585 212.806 215.43C212.651 215.27 212.573 215.054 212.573 214.78ZM220.381 224.481C219.205 224.481 218.284 224.139 217.619 223.455C216.958 222.767 216.628 221.821 216.628 220.618C216.628 219.383 216.935 218.412 217.551 217.706C218.166 217 219.011 216.647 220.087 216.647C221.085 216.647 221.873 216.95 222.452 217.556C223.031 218.162 223.32 218.996 223.32 220.058V220.926H218.282C218.305 221.66 218.503 222.225 218.877 222.621C219.251 223.013 219.777 223.209 220.456 223.209C220.903 223.209 221.317 223.168 221.7 223.086C222.088 222.999 222.502 222.858 222.944 222.662V223.968C222.552 224.155 222.156 224.287 221.755 224.364C221.354 224.442 220.896 224.481 220.381 224.481ZM220.087 217.863C219.576 217.863 219.166 218.025 218.856 218.349C218.551 218.672 218.369 219.144 218.31 219.764H221.741C221.732 219.139 221.582 218.668 221.29 218.349C220.998 218.025 220.597 217.863 220.087 217.863ZM231.846 224.344L230.868 220.816C230.75 220.443 230.535 219.575 230.226 218.212H230.164C229.9 219.442 229.69 220.315 229.535 220.83L228.53 224.344H226.753L224.634 216.783H226.274L227.238 220.509C227.457 221.429 227.612 222.218 227.703 222.874H227.744C227.79 222.541 227.858 222.161 227.949 221.732C228.045 221.3 228.127 220.976 228.195 220.762L229.344 216.783H231.107L232.222 220.762C232.29 220.985 232.374 221.327 232.475 221.787C232.579 222.247 232.641 222.605 232.659 222.86H232.714C232.782 222.3 232.942 221.516 233.192 220.509L234.17 216.783H235.783L233.65 224.344H231.846ZM242.668 222.19C242.668 222.929 242.399 223.496 241.861 223.893C241.324 224.285 240.553 224.481 239.551 224.481C238.544 224.481 237.735 224.328 237.124 224.023V222.635C238.013 223.045 238.84 223.25 239.605 223.25C240.594 223.25 241.089 222.952 241.089 222.355C241.089 222.163 241.034 222.004 240.925 221.876C240.815 221.748 240.635 221.616 240.385 221.48C240.134 221.343 239.785 221.188 239.339 221.015C238.468 220.677 237.878 220.34 237.568 220.003C237.263 219.666 237.11 219.228 237.11 218.69C237.11 218.043 237.37 217.542 237.89 217.187C238.414 216.827 239.125 216.647 240.022 216.647C240.911 216.647 241.752 216.827 242.545 217.187L242.025 218.397C241.21 218.059 240.524 217.891 239.968 217.891C239.12 217.891 238.696 218.132 238.696 218.615C238.696 218.852 238.806 219.053 239.024 219.217C239.248 219.381 239.731 219.607 240.474 219.894C241.098 220.135 241.551 220.356 241.834 220.557C242.116 220.757 242.326 220.99 242.463 221.254C242.6 221.514 242.668 221.826 242.668 222.19Z" fill="#0E2C40"/>
<path fill-rule="evenodd" clip-rule="evenodd" d="M138.887 218.741C138.887 223.933 134.703 228.158 129.561 228.158C124.419 228.158 120.236 223.933 120.236 218.741C120.236 213.549 124.419 209.324 129.561 209.324C134.703 209.324 138.887 213.549 138.887 218.741ZM137.245 218.741C137.245 214.462 133.798 210.982 129.561 210.982C125.324 210.982 121.878 214.462 121.878 218.741C121.878 223.019 125.324 226.499 129.561 226.499C133.798 226.499 137.245 223.019 137.245 218.741Z" fill="#F98149"/>
<path fill-rule="evenodd" clip-rule="evenodd" d="M134.885 217.416C135.029 217.866 134.911 218.352 134.575 218.682L132.956 220.276L133.338 222.527C133.418 222.993 133.23 223.458 132.851 223.736C132.471 224.014 131.978 224.049 131.562 223.83L129.561 222.767L127.559 223.83C127.379 223.926 127.183 223.972 126.988 223.972C126.735 223.972 126.485 223.892 126.269 223.734C125.89 223.456 125.704 222.993 125.784 222.525L126.165 220.276L124.547 218.682C124.209 218.35 124.093 217.866 124.237 217.414C124.381 216.965 124.76 216.642 125.224 216.574L127.463 216.246L128.464 214.197C128.672 213.772 129.092 213.508 129.561 213.508C130.03 213.508 130.451 213.773 130.657 214.197L131.659 216.246L133.896 216.574C134.361 216.642 134.741 216.965 134.885 217.416ZM132.821 218.092L131.205 217.855C130.807 217.796 130.462 217.543 130.285 217.18L129.561 215.699L128.838 217.178C128.66 217.543 128.315 217.796 127.917 217.855L126.3 218.092L127.47 219.244C127.758 219.527 127.89 219.937 127.822 220.338L127.545 221.963L128.992 221.195C129.347 221.005 129.774 221.005 130.13 221.195L131.577 221.963L131.3 220.336C131.232 219.937 131.364 219.527 131.652 219.244L132.821 218.092Z" fill="#F98149"/>
<rect x="94.1297" y="0.52771" width="195.243" height="60.5567" rx="8" fill="#FF914C"/>
<path d="M148.439 30.789C149.147 30.921 149.729 31.275 150.185 31.851C150.641 32.427 150.869 33.087 150.869 33.831C150.869 34.503 150.701 35.097 150.365 35.613C150.041 36.117 149.567 36.513 148.943 36.801C148.319 37.089 147.581 37.233 146.729 37.233H141.311V24.669H146.495C147.347 24.669 148.079 24.807 148.691 25.083C149.315 25.359 149.783 25.743 150.095 26.235C150.419 26.727 150.581 27.285 150.581 27.909C150.581 28.641 150.383 29.253 149.987 29.745C149.603 30.237 149.087 30.585 148.439 30.789ZM143.831 29.853H146.135C146.735 29.853 147.197 29.721 147.521 29.457C147.845 29.181 148.007 28.791 148.007 28.287C148.007 27.783 147.845 27.393 147.521 27.117C147.197 26.841 146.735 26.703 146.135 26.703H143.831V29.853ZM146.369 35.181C146.981 35.181 147.455 35.037 147.791 34.749C148.139 34.461 148.313 34.053 148.313 33.525C148.313 32.985 148.133 32.565 147.773 32.265C147.413 31.953 146.927 31.797 146.315 31.797H143.831V35.181H146.369ZM162.148 32.031C162.148 32.391 162.124 32.715 162.076 33.003H154.786C154.846 33.723 155.098 34.287 155.542 34.695C155.986 35.103 156.532 35.307 157.18 35.307C158.116 35.307 158.782 34.905 159.178 34.101H161.896C161.608 35.061 161.056 35.853 160.24 36.477C159.424 37.089 158.422 37.395 157.234 37.395C156.274 37.395 155.41 37.185 154.642 36.765C153.886 36.333 153.292 35.727 152.86 34.947C152.44 34.167 152.23 33.267 152.23 32.247C152.23 31.215 152.44 30.309 152.86 29.529C153.28 28.749 153.868 28.149 154.624 27.729C155.38 27.309 156.25 27.099 157.234 27.099C158.182 27.099 159.028 27.303 159.772 27.711C160.528 28.119 161.11 28.701 161.518 29.457C161.938 30.201 162.148 31.059 162.148 32.031ZM159.538 31.311C159.526 30.663 159.292 30.147 158.836 29.763C158.38 29.367 157.822 29.169 157.162 29.169C156.538 29.169 156.01 29.361 155.578 29.745C155.158 30.117 154.9 30.639 154.804 31.311H159.538ZM167.803 37.395C166.987 37.395 166.255 37.251 165.607 36.963C164.959 36.663 164.443 36.261 164.059 35.757C163.687 35.253 163.483 34.695 163.447 34.083H165.985C166.033 34.467 166.219 34.785 166.543 35.037C166.879 35.289 167.293 35.415 167.785 35.415C168.265 35.415 168.637 35.319 168.901 35.127C169.177 34.935 169.315 34.689 169.315 34.389C169.315 34.065 169.147 33.825 168.811 33.669C168.487 33.501 167.965 33.321 167.245 33.129C166.501 32.949 165.889 32.763 165.409 32.571C164.941 32.379 164.533 32.085 164.185 31.689C163.849 31.293 163.681 30.759 163.681 30.087C163.681 29.535 163.837 29.031 164.149 28.575C164.473 28.119 164.929 27.759 165.517 27.495C166.117 27.231 166.819 27.099 167.623 27.099C168.811 27.099 169.759 27.399 170.467 27.999C171.175 28.587 171.565 29.385 171.637 30.393H169.225C169.189 29.997 169.021 29.685 168.721 29.457C168.433 29.217 168.043 29.097 167.551 29.097C167.095 29.097 166.741 29.181 166.489 29.349C166.249 29.517 166.129 29.751 166.129 30.051C166.129 30.387 166.297 30.645 166.633 30.825C166.969 30.993 167.491 31.167 168.199 31.347C168.919 31.527 169.513 31.713 169.981 31.905C170.449 32.097 170.851 32.397 171.187 32.805C171.535 33.201 171.715 33.729 171.727 34.389C171.727 34.965 171.565 35.481 171.241 35.937C170.929 36.393 170.473 36.753 169.873 37.017C169.285 37.269 168.595 37.395 167.803 37.395ZM176.73 29.331V34.155C176.73 34.491 176.808 34.737 176.964 34.893C177.132 35.037 177.408 35.109 177.792 35.109H178.962V37.233H177.378C175.254 37.233 174.192 36.201 174.192 34.137V29.331H173.004V27.261H174.192V24.795H176.73V27.261H178.962V29.331H176.73ZM188.879 37.395C188.063 37.395 187.331 37.251 186.683 36.963C186.035 36.663 185.519 36.261 185.135 35.757C184.763 35.253 184.559 34.695 184.523 34.083H187.061C187.109 34.467 187.295 34.785 187.619 35.037C187.955 35.289 188.369 35.415 188.861 35.415C189.341 35.415 189.713 35.319 189.977 35.127C190.253 34.935 190.391 34.689 190.391 34.389C190.391 34.065 190.223 33.825 189.887 33.669C189.563 33.501 189.041 33.321 188.321 33.129C187.577 32.949 186.965 32.763 186.485 32.571C186.017 32.379 185.609 32.085 185.261 31.689C184.925 31.293 184.757 30.759 184.757 30.087C184.757 29.535 184.913 29.031 185.225 28.575C185.549 28.119 186.005 27.759 186.593 27.495C187.193 27.231 187.895 27.099 188.699 27.099C189.887 27.099 190.835 27.399 191.543 27.999C192.251 28.587 192.641 29.385 192.713 30.393H190.301C190.265 29.997 190.097 29.685 189.797 29.457C189.509 29.217 189.119 29.097 188.627 29.097C188.171 29.097 187.817 29.181 187.565 29.349C187.325 29.517 187.205 29.751 187.205 30.051C187.205 30.387 187.373 30.645 187.709 30.825C188.045 30.993 188.567 31.167 189.275 31.347C189.995 31.527 190.589 31.713 191.057 31.905C191.525 32.097 191.927 32.397 192.263 32.805C192.611 33.201 192.791 33.729 192.803 34.389C192.803 34.965 192.641 35.481 192.317 35.937C192.005 36.393 191.549 36.753 190.949 37.017C190.361 37.269 189.671 37.395 188.879 37.395ZM204.142 32.031C204.142 32.391 204.118 32.715 204.07 33.003H196.78C196.84 33.723 197.092 34.287 197.536 34.695C197.98 35.103 198.526 35.307 199.174 35.307C200.11 35.307 200.776 34.905 201.172 34.101H203.89C203.602 35.061 203.05 35.853 202.234 36.477C201.418 37.089 200.416 37.395 199.228 37.395C198.268 37.395 197.404 37.185 196.636 36.765C195.88 36.333 195.286 35.727 194.854 34.947C194.434 34.167 194.224 33.267 194.224 32.247C194.224 31.215 194.434 30.309 194.854 29.529C195.274 28.749 195.862 28.149 196.618 27.729C197.374 27.309 198.244 27.099 199.228 27.099C200.176 27.099 201.022 27.303 201.766 27.711C202.522 28.119 203.104 28.701 203.512 29.457C203.932 30.201 204.142 31.059 204.142 32.031ZM201.532 31.311C201.52 30.663 201.286 30.147 200.83 29.763C200.374 29.367 199.816 29.169 199.156 29.169C198.532 29.169 198.004 29.361 197.572 29.745C197.152 30.117 196.894 30.639 196.798 31.311H201.532ZM208.501 23.913V37.233H205.981V23.913H208.501ZM213.511 23.913V37.233H210.991V23.913H213.511ZM225.271 32.031C225.271 32.391 225.247 32.715 225.199 33.003H217.909C217.969 33.723 218.221 34.287 218.665 34.695C219.109 35.103 219.655 35.307 220.303 35.307C221.239 35.307 221.905 34.905 222.301 34.101H225.019C224.731 35.061 224.179 35.853 223.363 36.477C222.547 37.089 221.545 37.395 220.357 37.395C219.397 37.395 218.533 37.185 217.765 36.765C217.009 36.333 216.415 35.727 215.983 34.947C215.563 34.167 215.353 33.267 215.353 32.247C215.353 31.215 215.563 30.309 215.983 29.529C216.403 28.749 216.991 28.149 217.747 27.729C218.503 27.309 219.373 27.099 220.357 27.099C221.305 27.099 222.151 27.303 222.895 27.711C223.651 28.119 224.233 28.701 224.641 29.457C225.061 30.201 225.271 31.059 225.271 32.031ZM222.661 31.311C222.649 30.663 222.415 30.147 221.959 29.763C221.503 29.367 220.945 29.169 220.285 29.169C219.661 29.169 219.133 29.361 218.701 29.745C218.281 30.117 218.023 30.639 217.927 31.311H222.661ZM229.63 28.809C229.954 28.281 230.374 27.867 230.89 27.567C231.418 27.267 232.018 27.117 232.69 27.117V29.763H232.024C231.232 29.763 230.632 29.949 230.224 30.321C229.828 30.693 229.63 31.341 229.63 32.265V37.233H227.11V27.261H229.63V28.809Z" fill="white"/>
<defs>
<filter id="filter0_d_494_307" x="0" y="28.335" width="403.503" height="282.389" filterUnits="userSpaceOnUse" color-interpolation-filters="sRGB">
<feFlood flood-opacity="0" result="BackgroundImageFix"/>
<feColorMatrix in="SourceAlpha" type="matrix" values="0 0 0 0 0 0 0 0 0 0 0 0 0 0 0 0 0 0 127 0" result="hardAlpha"/>
<feOffset dx="10" dy="15"/>
<feGaussianBlur stdDeviation="15"/>
<feColorMatrix type="matrix" values="0 0 0 0 0.320833 0 0 0 0 0.320833 0 0 0 0 0.320833 0 0 0 0.2 0"/>
<feBlend mode="normal" in2="BackgroundImageFix" result="effect1_dropShadow_494_307"/>
<feBlend mode="normal" in="SourceGraphic" in2="effect1_dropShadow_494_307" result="shape"/>
</filter>
<clipPath id="clip0_494_307">
<rect width="33.4106" height="33.4106" fill="white" transform="translate(55.4988 93.4509)"/>
</clipPath>
<clipPath id="clip1_494_307">
<rect width="33.4106" height="34.5584" fill="white" transform="translate(55.4988 186.374)"/>
</clipPath>
</defs>
</svg>
