<svg width="60" height="58" viewBox="0 0 60 58" fill="none" xmlns="http://www.w3.org/2000/svg">
<path d="M10.4469 5.94349C10.4837 5.15542 10.4814 4.46413 10.5575 3.78206C10.7464 2.05384 12.2488 0.738084 13.9724 0.747302C15.7076 0.756519 17.2007 2.08379 17.3736 3.80049C17.4427 4.48257 17.4427 5.17155 17.4773 5.94349C17.7307 5.94349 17.9727 5.94349 18.2123 5.94349C25.9962 5.94349 33.7802 5.94349 41.5618 5.94349C41.7738 5.94349 41.9835 5.94349 42.1954 5.94349C43.2923 5.9504 43.5181 6.17622 43.5273 7.25233C43.5365 8.17174 43.5181 9.09346 43.5757 10.0106C43.6218 10.7088 44.0688 11.1696 44.7164 11.3885C45.3685 11.6098 46.0206 11.4991 46.4515 10.9669C46.7326 10.6212 46.9584 10.1212 46.9723 9.68336C47.0299 7.88371 47.016 6.07944 46.9884 4.27979C46.9746 3.33963 46.4307 2.70365 45.6127 2.53774C44.7878 2.36953 44.1172 2.75204 43.6564 3.59311C43.5181 3.84888 43.3084 4.16457 43.0688 4.23601C42.8084 4.31435 42.3498 4.23601 42.2024 4.04936C42.0157 3.81202 41.9328 3.35807 42.0226 3.06312C42.5941 1.15747 44.9606 0.196575 46.7626 1.10677C48.1152 1.79115 48.7097 2.94099 48.7373 4.42035C48.7466 4.89734 48.7397 5.37202 48.7397 5.94119C49.007 5.94119 49.2259 5.93888 49.4471 5.94119C51.3251 5.95501 53.2031 5.94119 55.0811 5.98958C57.1411 6.04488 59.0099 7.7754 59.1136 10.1604C59.1228 10.3516 59.1205 10.5429 59.1205 10.7341C59.1205 21.5251 59.1205 32.3185 59.1205 43.1095C59.1205 43.3399 59.1389 43.5773 59.0836 43.7962C58.973 44.2363 58.6689 44.4805 58.2011 44.4552C57.761 44.4298 57.4983 44.1695 57.4153 43.7478C57.3762 43.5427 57.39 43.3284 57.39 43.1164C57.39 36.1782 57.39 29.2376 57.39 22.2994C57.39 22.0713 57.39 21.8431 57.39 21.5344C57.1181 21.5344 56.8761 21.5344 56.6365 21.5344C41.1654 21.5344 25.6944 21.5344 10.2233 21.5344C10.0136 21.5344 9.79935 21.5459 9.59196 21.5251C9.09654 21.4767 8.74859 21.115 8.74629 20.6679C8.74398 20.2209 9.09193 19.8591 9.58735 19.8107C9.79705 19.79 10.009 19.8015 10.2187 19.8015C25.6713 19.8015 41.1217 19.8015 56.5743 19.8015C56.8208 19.8015 57.0674 19.8015 57.39 19.8015C57.39 19.5596 57.39 19.3568 57.39 19.1517C57.39 16.3151 57.3923 13.4785 57.39 10.6419C57.3877 8.71786 56.3738 7.69015 54.4543 7.68323C52.6339 7.67632 50.8112 7.68554 48.9908 7.69015C48.9355 7.69015 48.8802 7.71319 48.6797 7.75697C48.6797 8.54274 48.7443 9.36537 48.6659 10.1742C48.4977 11.9093 46.9999 13.2182 45.2694 13.2228C43.5204 13.2274 42.0157 11.8932 41.8567 10.1258C41.7876 9.34924 41.8452 8.56117 41.8452 7.73162C33.6719 7.73162 25.5976 7.73162 17.3828 7.73162C17.3828 8.55887 17.4427 9.3792 17.3713 10.1903C17.2215 11.8955 15.6776 13.2343 13.9586 13.2228C12.2488 13.2112 10.7372 11.907 10.5736 10.2249C10.4952 9.41376 10.5598 8.58882 10.5598 7.72702C10.2602 7.70858 10.0759 7.68554 9.89152 7.68554C8.22321 7.68323 6.5549 7.67862 4.88889 7.68554C2.97402 7.69476 1.96013 8.72247 1.95783 10.6512C1.95553 13.4878 1.95783 16.3243 1.95783 19.1609C1.95783 19.3499 1.95783 19.5388 1.95783 19.8038C2.89107 19.8038 3.78514 19.8038 4.6792 19.8038C5.14928 19.8038 5.50875 19.9813 5.62857 20.4675C5.77374 21.0574 5.36819 21.5182 4.68151 21.5321C3.80127 21.5482 2.92103 21.5367 1.95783 21.5367C1.95783 21.7694 1.95783 21.9722 1.95783 22.175C1.95783 32.4498 1.95783 42.7224 1.95783 52.9972C1.95783 54.9743 2.98785 56.0089 4.97185 56.0089C21.4407 56.0112 37.9072 56.0112 54.376 56.0089C56.3646 56.0089 57.39 54.9812 57.3923 52.9995C57.3946 51.6008 57.39 50.1998 57.3946 48.8011C57.3969 48.0914 57.7333 47.6835 58.2817 47.7019C58.8071 47.7181 59.1205 48.1144 59.1228 48.7942C59.1274 50.2505 59.1297 51.7068 59.1228 53.1654C59.109 55.8476 57.3209 57.668 54.6363 57.7464C54.5396 57.7487 54.4451 57.7464 54.3483 57.7464C37.9002 57.7464 21.4499 57.7441 5.0018 57.7487C3.08233 57.7487 1.52923 57.0689 0.699684 55.2693C0.390908 54.5987 0.245738 53.7945 0.245738 53.0502C0.213478 38.9018 0.218086 24.7558 0.22039 10.6097C0.22039 7.78923 2.01544 5.97575 4.84511 5.94579C6.49268 5.92736 8.14256 5.94349 9.79013 5.94119C9.99752 5.94349 10.2049 5.94349 10.4469 5.94349ZM15.6592 7.0242C15.6707 7.0242 15.6845 7.0242 15.696 7.0242C15.696 6.1647 15.696 5.3029 15.696 4.44339C15.696 4.40422 15.696 4.36735 15.6937 4.32818C15.643 3.23133 14.9518 2.49165 13.9724 2.48474C12.9931 2.47783 12.2534 3.2152 12.235 4.30744C12.2073 6.08405 12.2027 7.86527 12.2465 9.64188C12.2557 10.052 12.4216 10.5198 12.6636 10.8516C13.0945 11.4438 13.7558 11.6144 14.4609 11.3978C15.1384 11.1904 15.6062 10.7203 15.6453 10.0014C15.6983 9.01512 15.6592 8.01736 15.6592 7.0242Z" fill="#5C5C5C"/>
<path d="M29.6615 52.2691C28.8573 52.2691 28.0531 52.2783 27.2466 52.2668C26.53 52.2576 26.2143 51.958 26.212 51.2621C26.2028 49.633 26.2028 48.0061 26.212 46.377C26.2166 45.6765 26.5346 45.3539 27.2328 45.3493C28.8619 45.3378 30.4888 45.3378 32.1179 45.3493C32.8138 45.3539 33.1226 45.6788 33.1249 46.3908C33.1341 47.9992 33.1341 49.6099 33.1249 51.2183C33.1203 51.9557 32.8161 52.2553 32.0741 52.2668C31.2699 52.2783 30.4657 52.2691 29.6615 52.2691ZM27.9633 50.4879C29.1361 50.4879 30.2514 50.4879 31.3644 50.4879C31.3644 49.3403 31.3644 48.2366 31.3644 47.1121C30.2192 47.1121 29.1016 47.1121 27.9633 47.1121C27.9633 48.2504 27.9633 49.3518 27.9633 50.4879Z" fill="#5C5C5C"/>
<path d="M8.88484 24.629C9.70747 24.629 10.5324 24.6197 11.355 24.6313C12.0049 24.6428 12.3205 24.9331 12.3275 25.576C12.3459 27.242 12.3459 28.908 12.3275 30.574C12.3205 31.24 11.9956 31.5372 11.3136 31.5418C9.68443 31.5511 8.0576 31.5511 6.42846 31.5418C5.75791 31.5372 5.41918 31.2238 5.41226 30.5625C5.39383 28.9149 5.39383 27.2697 5.41226 25.6221C5.41918 24.9516 5.74639 24.6428 6.41233 24.6313C7.23727 24.6174 8.0622 24.629 8.88484 24.629ZM7.18657 26.3894C7.18657 27.5185 7.18657 28.6476 7.18657 29.7675C8.34102 29.7675 9.4563 29.7675 10.567 29.7675C10.567 28.62 10.567 27.5208 10.567 26.3894C9.43556 26.3894 8.33411 26.3894 7.18657 26.3894Z" fill="#5C5C5C"/>
<path d="M8.85268 52.269C8.04848 52.269 7.24428 52.2782 6.44008 52.2667C5.74188 52.2552 5.42158 51.9464 5.41467 51.2413C5.40084 49.6329 5.40084 48.0245 5.41467 46.4161C5.41927 45.6834 5.74648 45.3584 6.47003 45.3538C8.07843 45.3446 9.68683 45.3446 11.2975 45.3538C12.0096 45.3584 12.3299 45.6603 12.3368 46.3608C12.3529 47.9876 12.3506 49.6168 12.3368 51.2436C12.3299 51.981 12.0257 52.2621 11.2676 52.269C10.4611 52.2759 9.65688 52.269 8.85268 52.269ZM10.5509 50.5085C10.5509 49.3311 10.5509 48.2181 10.5509 47.112C9.4011 47.112 8.30195 47.112 7.18437 47.112C7.18437 48.2619 7.18437 49.3748 7.18437 50.5085C8.32269 50.5085 9.42414 50.5085 10.5509 50.5085Z" fill="#5C5C5C"/>
<path d="M46.9996 38.3857C46.9996 37.5999 46.9904 36.8141 47.0019 36.0307C47.0134 35.2726 47.2991 34.9753 48.0388 34.9707C49.6472 34.9592 51.2579 34.9615 52.8663 34.9707C53.606 34.9753 53.9217 35.2841 53.9263 36.0191C53.9378 37.6275 53.9401 39.2359 53.9263 40.8443C53.9194 41.5656 53.583 41.8836 52.8502 41.8882C51.2602 41.8974 49.6703 41.8974 48.0803 41.8882C47.313 41.8836 47.0157 41.5794 47.0042 40.7983C46.9904 39.9941 46.9996 39.1899 46.9996 38.3857ZM48.7647 40.1208C49.9399 40.1208 51.0413 40.1208 52.1474 40.1208C52.1474 38.9663 52.1474 37.8511 52.1474 36.7381C50.9952 36.7381 49.8915 36.7381 48.7647 36.7381C48.7647 37.881 48.7647 38.9848 48.7647 40.1208Z" fill="#5C5C5C"/>
<path d="M19.2756 52.2691C18.453 52.2691 17.6281 52.2806 16.8054 52.2645C16.1556 52.253 15.833 51.9626 15.8261 51.322C15.8054 49.656 15.8054 47.99 15.8261 46.324C15.833 45.6581 16.1648 45.3539 16.8423 45.3493C18.4691 45.3378 20.0983 45.3378 21.7274 45.3493C22.3956 45.3539 22.739 45.6696 22.7459 46.3309C22.7666 47.9785 22.7643 49.6237 22.7482 51.2713C22.7413 51.9626 22.4072 52.2553 21.6928 52.2645C20.884 52.2783 20.0798 52.2691 19.2756 52.2691ZM20.9923 47.1236C19.8194 47.1236 18.7065 47.1236 17.5889 47.1236C17.5889 48.2711 17.5889 49.3703 17.5889 50.4971C18.7364 50.4971 19.8494 50.4971 20.9923 50.4971C20.9923 49.3611 20.9923 48.2596 20.9923 47.1236Z" fill="#5C5C5C"/>
<path d="M40.0231 52.269C39.2374 52.269 38.4516 52.2759 37.6682 52.2666C36.9216 52.2574 36.6013 51.9625 36.5944 51.232C36.5805 49.6236 36.5805 48.0152 36.5944 46.4068C36.6013 45.6764 36.9308 45.3561 37.6566 45.3515C39.265 45.3422 40.8734 45.3422 42.4841 45.3515C43.1869 45.3561 43.5119 45.6625 43.5211 46.3653C43.5372 47.9922 43.5372 49.6213 43.5211 51.2481C43.5142 51.9625 43.2031 52.2551 42.4957 52.2666C41.6707 52.2782 40.8481 52.269 40.0231 52.269ZM41.7537 47.1212C40.5923 47.1212 39.4793 47.1212 38.371 47.1212C38.371 48.2779 38.371 49.3909 38.371 50.5039C39.5208 50.5039 40.6223 50.5039 41.7537 50.5039C41.7537 49.3701 41.7537 48.2687 41.7537 47.1212Z" fill="#5C5C5C"/>
<path d="M51.6191 28.0808C52.1468 28.5855 52.5892 28.9818 52.9993 29.4081C53.4372 29.8643 53.4441 30.3667 53.057 30.7285C52.6883 31.0718 52.2136 31.0534 51.7804 30.6225C51.3472 30.1939 50.9531 29.7261 50.4692 29.1938C50.0521 29.65 49.7434 30.0141 49.4092 30.3552C48.741 31.0372 48.2848 31.1363 47.8469 30.7146C47.4068 30.2929 47.5151 29.7883 48.2041 29.1085C48.5313 28.7859 48.877 28.4841 49.3609 28.0393C48.8124 27.5508 48.3055 27.1499 47.8608 26.689C47.4068 26.2189 47.5289 25.5553 48.0705 25.2949C48.4714 25.1014 48.8147 25.235 49.1166 25.5184C49.3401 25.7281 49.5567 25.9447 49.7664 26.1683C49.9761 26.3918 50.1743 26.6245 50.4784 26.9655C50.9301 26.4632 51.3103 26.0116 51.7251 25.5922C52.1951 25.1175 52.7182 25.0875 53.0846 25.4654C53.4648 25.8572 53.4233 26.3319 52.9325 26.8273C52.5316 27.2351 52.1076 27.6177 51.6191 28.0808Z" fill="#5C5C5C"/>
<path d="M41.2111 38.4479C41.6535 38.8512 42.0429 39.1876 42.4116 39.5471C42.99 40.1139 43.0822 40.6393 42.695 41.0333C42.271 41.4665 41.7895 41.3836 41.1673 40.7568C40.817 40.4043 40.4852 40.0356 40.0428 39.5655C39.5681 40.0747 39.1533 40.5402 38.7132 40.9826C38.3653 41.3329 37.9574 41.432 37.5265 41.114C37.0772 40.7845 37.0518 40.2337 37.4989 39.7683C37.9205 39.3282 38.3814 38.9272 38.9091 38.4318C38.4091 37.9571 37.9712 37.5654 37.5611 37.146C37.0841 36.6598 37.0541 36.1621 37.4482 35.7841C37.8099 35.4385 38.3192 35.4754 38.7708 35.9132C39.1948 36.3257 39.5981 36.7612 40.0704 37.2474C40.5221 36.7727 40.9161 36.3349 41.3355 35.9201C41.801 35.4639 42.3379 35.4339 42.6996 35.8164C43.0407 36.1759 42.9946 36.692 42.5591 37.1391C42.1604 37.5492 41.7388 37.9387 41.2111 38.4479Z" fill="#5C5C5C"/>
<path d="M39.536 28.6615C40.4416 27.7536 41.3564 26.8342 42.2758 25.9194C42.4233 25.7719 42.5777 25.6152 42.7551 25.5161C43.1307 25.3064 43.5017 25.3525 43.7967 25.6728C44.0893 25.9908 44.1262 26.3549 43.8773 26.7236C43.7921 26.848 43.6884 26.9632 43.5801 27.0715C42.4994 28.1568 41.4186 29.2422 40.331 30.3206C39.7089 30.9381 39.2987 30.9358 38.6696 30.3183C38.1097 29.7675 37.5543 29.2145 37.0059 28.6523C36.5151 28.1499 36.469 27.6868 36.8446 27.2904C37.2133 26.9056 37.7525 26.9609 38.2525 27.4448C38.6512 27.8319 39.0429 28.2237 39.437 28.6131C39.4554 28.6246 39.4761 28.6292 39.536 28.6615Z" fill="#5C5C5C"/>
<path d="M18.7394 39.1413C19.198 38.6344 19.5828 38.1851 19.993 37.7611C20.5506 37.1827 21.1175 36.6135 21.6982 36.0582C22.1314 35.6434 22.6176 35.6227 22.977 35.9614C23.348 36.3094 23.3411 36.8463 22.9125 37.2818C21.7604 38.4547 20.5967 39.6183 19.4238 40.7705C18.9422 41.2429 18.4998 41.2383 18.0159 40.7728C17.3822 40.1621 16.7601 39.54 16.1494 38.9086C15.7485 38.4938 15.7277 37.9754 16.0595 37.6274C16.4098 37.261 16.9421 37.2772 17.3799 37.7058C17.8177 38.1344 18.2233 38.5929 18.7394 39.1413Z" fill="#5C5C5C"/>
<path d="M29.0513 39.1138C30.0514 38.1068 30.9247 37.2243 31.8003 36.3417C31.9225 36.2196 32.0377 36.0905 32.1713 35.9822C32.5861 35.6435 33.0838 35.655 33.4087 36.0053C33.7152 36.3348 33.7313 36.8371 33.3765 37.1989C32.1713 38.4294 30.9524 39.6438 29.7242 40.8489C29.3601 41.2061 28.9107 41.2314 28.5374 40.8812C27.8254 40.2152 27.1318 39.5286 26.4636 38.8188C26.0903 38.4225 26.1225 37.9063 26.4958 37.5929C26.8899 37.2588 27.3231 37.2773 27.6849 37.6298C28.148 38.0838 28.5651 38.5815 29.0513 39.1138Z" fill="#5C5C5C"/>
<path d="M8.28442 39.0793C9.25914 38.1 10.1624 37.1921 11.0703 36.2865C11.2063 36.1528 11.3399 36.0123 11.4966 35.904C11.8768 35.6436 12.2709 35.662 12.5935 35.9823C12.9368 36.3234 12.9714 36.7335 12.6534 37.1183C12.4229 37.3972 12.1579 37.6483 11.8999 37.9064C10.9666 38.8419 10.038 39.7798 9.09783 40.7061C8.53789 41.2592 8.12312 41.2615 7.56548 40.72C6.96175 40.1347 6.36264 39.5402 5.77734 38.9341C5.32801 38.4687 5.30496 37.9917 5.68056 37.6138C6.03542 37.2566 6.56311 37.2819 7.00323 37.7151C7.44105 38.1461 7.8443 38.6069 8.28442 39.0793Z" fill="#5C5C5C"/>
<path d="M29.0757 28.7352C29.9882 27.8227 30.8223 26.9862 31.6588 26.1498C31.7947 26.0138 31.9261 25.8755 32.0643 25.7442C32.5252 25.3156 33.0252 25.2787 33.387 25.6405C33.7534 26.0046 33.728 26.5161 33.2879 26.9609C32.2141 28.0508 31.1265 29.1269 30.0435 30.2076C29.949 30.3021 29.8568 30.4012 29.7554 30.4887C29.3291 30.8551 28.8821 30.8805 28.4719 30.491C27.7922 29.8458 27.1262 29.1845 26.4833 28.5024C26.1031 28.1015 26.1262 27.6153 26.4695 27.2696C26.8036 26.9355 27.3106 26.9263 27.7023 27.2996C28.1747 27.7512 28.6033 28.2374 29.0757 28.7352Z" fill="#5C5C5C"/>
<path d="M18.6904 28.7398C19.6559 27.7697 20.5568 26.8618 21.4601 25.9585C21.6076 25.811 21.7574 25.6544 21.9302 25.5438C22.2943 25.3087 22.6699 25.341 22.9787 25.6382C23.2874 25.9355 23.3358 26.3065 23.1123 26.6821C23.027 26.8272 22.9049 26.9563 22.7851 27.0784C21.7067 28.1637 20.626 29.2468 19.5406 30.3252C18.9208 30.9404 18.5129 30.9335 17.8816 30.3113C17.3101 29.7468 16.7386 29.1822 16.181 28.6039C15.7501 28.1568 15.7155 27.6453 16.0681 27.2835C16.4183 26.924 16.9506 26.9471 17.3861 27.378C17.8239 27.802 18.2318 28.2536 18.6904 28.7398Z" fill="#5C5C5C"/>
</svg>
