<svg width="174" height="187" viewBox="0 0 174 187" fill="none" xmlns="http://www.w3.org/2000/svg">
<path d="M149.64 112.406C149.23 108.878 149.5 105.258 150.36 101.855C154.737 84.5698 149.732 69.8431 140.892 58.8427C132.898 48.8898 130.903 34.1679 130.903 34.1679C125.029 14.2234 105.132 0.389648 87.0218 0.389648C68.912 0.389648 49.0729 13.427 43.2037 33.3715C43.2037 33.3715 40.5518 49.1601 33.1513 58.8427C24.5819 70.0555 19.3069 84.5698 23.6834 101.855C24.5433 105.258 24.8138 108.878 24.4032 112.406C24.0989 115.013 23.4081 117.721 21.9637 119.593H152.085C150.636 117.716 149.945 115.013 149.64 112.406Z" fill="#191919"/>
<path d="M101.383 142.009L98.0209 101.999C98.0209 101.999 94.0116 107.28 88.7559 108.511C83.5003 109.742 78.462 105.639 78.3992 105.591C78.3364 105.542 74.1676 100.855 74.1676 100.855L71.3707 142.255C71.3659 142.752 71.3224 143.24 71.2548 143.718L101.446 143.298C101.407 142.873 101.378 142.444 101.383 142.009Z" fill="white" stroke="#1E0A05" stroke-width="2.9698" stroke-miterlimit="10"/>
<path d="M69.0811 94.5951C69.0811 94.5951 75.9308 118.893 90.6833 117.185C103.011 115.756 99.2141 91.0039 99.2141 91.0039L69.0811 94.5951Z" fill="#191919"/>
<path d="M62.1974 71.1561C62.3665 77.18 57.618 82.2048 51.5895 82.3737C45.561 82.5426 40.5323 77.7979 40.3633 71.774C40.1942 65.7501 44.9426 60.7253 50.9712 60.5564C56.9997 60.3826 62.0235 65.1322 62.1974 71.1561Z" fill="white" stroke="#1E0A05" stroke-width="3.0487" stroke-miterlimit="10"/>
<path d="M132.695 71.1561C132.864 77.18 128.115 82.2048 122.087 82.3737C116.058 82.5426 111.03 77.7979 110.861 71.774C110.692 65.7501 115.44 60.7253 121.469 60.5564C127.497 60.3826 132.521 65.1322 132.695 71.1561Z" fill="white" stroke="#1E0A05" stroke-width="3.0487" stroke-miterlimit="10"/>
<path d="M87.0218 88.3397C110.974 88.3397 130.391 68.9378 130.391 45.0043C130.391 21.0709 110.974 1.66895 87.0218 1.66895C63.0698 1.66895 43.653 21.0709 43.653 45.0043C43.653 68.9378 63.0698 88.3397 87.0218 88.3397Z" fill="#191919"/>
<path d="M123.038 51.7665C123.053 54.0158 120.517 75.2539 118.155 83.503C114.913 94.822 100.885 104.828 100.885 104.828C92.1808 109.718 82.2105 109.887 73.3222 105.262C73.3222 105.262 58.5262 95.7825 56.2414 83.5947C53.2464 67.5986 51.2514 52.1334 51.2514 52.1334C51.2514 52.1334 47.527 15.4107 86.244 15.879C124.961 16.3423 123.038 51.7665 123.038 51.7665Z" fill="white" stroke="#1E0A05" stroke-width="2.9698" stroke-miterlimit="10"/>
<path d="M105.576 47.3064C105.576 47.3064 113.208 48.2717 112.571 51.8291C112.571 51.8291 112.435 55.5313 105.465 54.5466C98.4943 53.5571 95.0791 50.5741 95.4076 48.8992C95.8714 46.5437 101.905 46.5437 105.576 47.3064Z" fill="#191919"/>
<path d="M67.2503 47.3064C67.2503 47.3064 59.618 48.2717 60.2556 51.8291C60.2556 51.8291 60.3909 55.5313 67.3614 54.5466C74.3319 53.5571 77.7471 50.5741 77.4186 48.8992C76.9597 46.5437 70.9263 46.5437 67.2503 47.3064Z" fill="#191919"/>
<path d="M101.721 67.9703C103.453 67.9703 104.856 66.5678 104.856 64.8377C104.856 63.1076 103.453 61.7051 101.721 61.7051C99.9898 61.7051 98.5862 63.1076 98.5862 64.8377C98.5862 66.5678 99.9898 67.9703 101.721 67.9703Z" fill="#191919"/>
<path d="M70.9795 67.9703C72.711 67.9703 74.1146 66.5678 74.1146 64.8377C74.1146 63.1076 72.711 61.7051 70.9795 61.7051C69.2481 61.7051 67.8445 63.1076 67.8445 64.8377C67.8445 66.5678 69.2481 67.9703 70.9795 67.9703Z" fill="#191919"/>
<path d="M87.4711 70.1616L88.2488 76.7406H84.5824" stroke="black" stroke-width="3.0487" stroke-miterlimit="10" stroke-linecap="round" stroke-linejoin="round"/>
<path d="M77.4427 83.353C77.4427 83.353 80.8966 85.1679 86.017 85.1679C91.2244 85.1679 95.3883 83.353 95.3883 83.353" stroke="black" stroke-width="2.8498" stroke-miterlimit="10" stroke-linecap="round" stroke-linejoin="round"/>
<path d="M49.5511 45.4482C49.5511 45.4482 86.2489 37.4019 86.244 15.8741C86.244 15.8741 48.8216 -0.870174 49.5511 45.4482Z" fill="#191919"/>
<path d="M121.995 45.4482C121.995 45.4482 85.2973 38.6906 85.3021 15.8741C85.3021 15.8741 122.725 -0.870174 121.995 45.4482Z" fill="#191919"/>
<path d="M151.727 151.204L105.19 136.801H87.1135H86.93H68.854L22.3163 151.204C22.3163 151.204 2.43372 158.217 2.43372 186.261H86.93H87.1135H171.61C171.61 158.217 151.727 151.204 151.727 151.204Z" fill="#E69051" stroke="#1E0A05" stroke-width="3.0487" stroke-miterlimit="10"/>
<path d="M74.6604 135.005L46.5127 143.717C46.5127 143.717 55.8937 166.23 88.3985 166.23C123.019 166.23 127.584 143.717 127.584 143.717L99.6199 134.807" fill="white"/>
<path d="M74.6604 135.005L46.5127 143.717C46.5127 143.717 55.8937 166.23 88.3985 166.23C123.019 166.23 127.584 143.717 127.584 143.717L99.6199 134.807" stroke="#1E0A05" stroke-width="3.0487" stroke-miterlimit="10"/>
<path d="M72.6219 134.194L72.448 138.765L100.359 138.036L99.9243 133.354L72.6219 134.194Z" fill="white"/>
</svg>
