<svg width="200" height="206" viewBox="0 0 200 206" fill="none" xmlns="http://www.w3.org/2000/svg">
<g clip-path="url(#clip0_586_151)">
<path d="M121.099 160.665L116.832 116.358C116.832 116.358 111.88 121.673 105.374 122.9C98.8688 124.132 92.6206 119.979 92.5429 119.931C92.4653 119.882 87.29 115.146 87.29 115.146L83.9353 160.836C83.9305 161.337 83.8771 161.829 83.7994 162.311L121.191 161.965C121.128 161.537 121.094 161.103 121.099 160.665Z" fill="white" stroke="#1E0A05" stroke-width="3.0487" stroke-miterlimit="10"/>
<path d="M82.741 112.6C82.741 112.6 89.6495 139.324 107.792 136.92C120.919 135.177 118.293 110.541 118.293 110.541L82.741 112.6Z" fill="#191919"/>
<path d="M80.3088 23.5899C80.3088 23.5899 69.0213 20.5426 59.7097 35.1658C45.8685 56.901 71.5118 92.1056 71.5118 92.1056L80.3088 23.5899Z" fill="#191919"/>
<path d="M123.925 23.5899C123.925 23.5899 133.901 20.5426 143.213 35.1658C157.054 56.901 132.722 92.1056 132.722 92.1056L123.925 23.5899Z" fill="#191919"/>
<path d="M79.6777 83.9521C79.867 90.6065 74.6383 96.151 68.0018 96.336C61.3652 96.521 55.8355 91.2831 55.651 84.6287C55.4617 77.9743 60.6904 72.4297 67.3269 72.2447C73.9587 72.0549 79.4932 77.2976 79.6777 83.9521Z" fill="white" stroke="#1E0A05" stroke-width="3.0487" stroke-miterlimit="10"/>
<path d="M149.481 83.9521C149.67 90.6065 144.441 96.151 137.805 96.336C131.168 96.5258 125.638 91.2831 125.454 84.6287C125.265 77.9743 130.493 72.4297 137.13 72.2447C143.766 72.0549 149.296 77.2976 149.481 83.9521Z" fill="white" stroke="#1E0A05" stroke-width="3.0487" stroke-miterlimit="10"/>
<path d="M132.29 91.1199C149.04 74.3244 149.04 47.0936 132.29 30.2981C115.539 13.5026 88.3814 13.5026 71.6309 30.2981C54.8805 47.0936 54.8805 74.3244 71.6309 91.1199C88.3813 107.915 115.539 107.915 132.29 91.1199Z" fill="#191919"/>
<path d="M138.78 65.4052C138.853 79.8337 136.785 92.3004 134.698 101.145C132.654 109.81 126.818 115.885 118.55 120.792L117.045 121.688C108.297 126.882 96.9657 127.062 88.0328 122.141C79.0222 117.18 72.7012 110.613 70.7204 101.34C67.1133 84.4679 66.6375 65.7703 66.6375 65.7703C66.6375 65.7703 61.5739 26.7395 100.485 27.2506C139.392 27.7617 138.78 65.4052 138.78 65.4052Z" fill="white" stroke="#1E0A05" stroke-width="3.0487" stroke-miterlimit="10"/>
<path d="M120.623 61.2528C120.623 61.2528 128.294 62.3919 127.653 66.6027C127.653 66.6027 127.517 70.9789 120.512 69.8106C113.506 68.6423 110.074 65.1179 110.404 63.1367C110.87 60.3474 116.929 60.3474 120.623 61.2528Z" fill="#191919"/>
<path d="M82.1051 61.2528C82.1051 61.2528 74.4344 62.3919 75.0753 66.6027C75.0753 66.6027 75.2112 70.9789 82.2167 69.8106C89.2223 68.6423 92.6546 65.1179 92.3245 63.1367C91.8584 60.3474 85.7947 60.3474 82.1051 61.2528Z" fill="#191919"/>
<path d="M117.361 82.0143C119.101 82.0143 120.512 80.5999 120.512 78.8551C120.512 77.1103 119.101 75.6958 117.361 75.6958C115.621 75.6958 114.21 77.1103 114.21 78.8551C114.21 80.5999 115.621 82.0143 117.361 82.0143Z" fill="#191919"/>
<path d="M86.4648 82.0143C88.2049 82.0143 89.6156 80.5999 89.6156 78.8551C89.6156 77.1103 88.2049 75.6958 86.4648 75.6958C84.7246 75.6958 83.314 77.1103 83.314 78.8551C83.314 80.5999 84.7246 82.0143 86.4648 82.0143Z" fill="#191919"/>
<path d="M103.112 78.855L104.768 92.1736H100.621" stroke="black" stroke-width="3.0487" stroke-miterlimit="10" stroke-linecap="round" stroke-linejoin="round"/>
<path d="M90.2709 98.439C90.2709 98.439 93.8053 100.269 101.573 100.269C110.564 100.269 113.657 98.439 113.657 98.439" stroke="black" stroke-width="2.8498" stroke-miterlimit="10" stroke-linecap="round" stroke-linejoin="round"/>
<path d="M100 105.789H105.35" stroke="black" stroke-width="2.8498" stroke-miterlimit="10" stroke-linecap="round" stroke-linejoin="round"/>
<path d="M79.1291 32.8096C79.1291 32.8096 77.5027 53.3181 63.8946 62.4113C63.8946 62.4113 62.9964 34.6594 79.1291 32.8096Z" fill="#191919"/>
<path d="M154.733 16.3857C154.733 16.3857 143.975 18.2452 131.251 18.9316C134.935 12.6861 133.28 8.54834 133.28 8.54834C125.969 14.6916 108.71 7.91064 94.6063 9.1909C68.6717 11.547 68.8853 34.3385 68.8853 34.3385L74.2887 33.7154C76.0171 39.7127 82.8381 53.8783 108.515 51.9944C133.984 50.1251 135.494 48.9227 153.238 54.701C153.238 54.701 152.554 43.3393 145.864 34.65C150.481 30.9699 153.986 25.2404 154.733 16.3857Z" fill="#191919"/>
<path d="M167.618 169.9L120.847 155.374H102.68H102.495H84.3286L37.557 169.9C37.557 169.9 17.5745 176.973 17.5745 205.255H102.495H102.68H187.601C187.596 176.973 167.618 169.9 167.618 169.9Z" fill="#E69051" stroke="#1E0A05" stroke-width="3.0487" stroke-miterlimit="10"/>
<path d="M85.086 155.135L70.0068 159.818L70.7982 160.397C89.6738 174.174 115.366 173.765 133.799 159.399L119.483 154.955" fill="white"/>
<path d="M85.086 155.135L70.0068 159.818L70.7982 160.397C89.6738 174.174 115.366 173.765 133.799 159.399L119.483 154.955" stroke="#1E0A05" stroke-width="3.0487" stroke-miterlimit="10"/>
<path d="M85.1637 154.113L84.5956 160.811L94.9025 160.466L120.293 160.003L119.711 153.748L85.1637 154.113Z" fill="white"/>
</g>
<defs>
<clipPath id="clip0_586_151">
<rect width="200" height="206" fill="white"/>
</clipPath>
</defs>
</svg>
