<svg width="164" height="188" viewBox="0 0 164 188" fill="none" xmlns="http://www.w3.org/2000/svg">
<path d="M99.4199 144.217L95.4041 102.634C95.4041 102.634 90.7442 107.623 84.6223 108.774C78.5005 109.93 72.6207 106.033 72.5476 105.987C72.4746 105.942 67.6045 101.497 67.6045 101.497L64.4476 144.377C64.443 144.848 64.3928 145.309 64.3197 145.761L99.5067 145.437C99.4519 145.035 99.4153 144.628 99.4199 144.217Z" fill="white" stroke="#1E0A05" stroke-width="3.0487" stroke-miterlimit="10"/>
<path d="M63.3283 99.1073C63.3283 99.1073 69.8293 124.189 86.902 121.932C99.2554 120.296 96.7838 97.1748 96.7838 97.1748L63.3283 99.1073Z" fill="#191919"/>
<path d="M60.4456 72.2218C60.6237 78.467 55.7034 83.6706 49.4582 83.8442C43.213 84.0224 38.0094 79.1021 37.8358 72.8569C37.6576 66.6116 42.5779 61.408 48.8232 61.2344C55.0638 61.0608 60.2674 65.9766 60.4456 72.2218Z" fill="white" stroke="#1E0A05" stroke-width="3.0487" stroke-miterlimit="10"/>
<path d="M126.132 72.2218C126.31 78.467 121.39 83.6706 115.145 83.8442C108.9 84.0224 103.696 79.1021 103.522 72.8569C103.344 66.6116 108.265 61.408 114.51 61.2344C120.75 61.0608 125.959 65.9766 126.132 72.2218Z" fill="white" stroke="#1E0A05" stroke-width="3.0487" stroke-miterlimit="10"/>
<path d="M116.063 54.8155C116.132 68.3567 114.185 80.0567 112.221 88.3578C110.298 96.4898 104.806 102.191 97.026 106.797L95.6097 107.637C87.3772 112.512 76.7142 112.681 68.308 108.062C59.8288 103.407 53.8805 97.2437 52.0166 88.5406C48.6221 72.7059 48.1744 55.1581 48.1744 55.1581C48.1744 55.1581 43.4094 18.5274 80.0264 19.0071C116.639 19.4868 116.063 54.8155 116.063 54.8155Z" fill="white" stroke="#1E0A05" stroke-width="3.0487" stroke-miterlimit="10"/>
<path d="M98.9767 50.918C98.9767 50.918 106.195 51.987 105.592 55.9388C105.592 55.9388 105.464 60.046 98.8716 58.9495C92.2792 57.8531 89.0492 54.5454 89.3599 52.686C89.7939 50.0682 95.5 50.0682 98.9767 50.918Z" fill="#191919"/>
<path d="M62.7298 50.918C62.7298 50.918 55.5115 51.987 56.1146 55.9388C56.1146 55.9388 56.2425 60.046 62.8349 58.9495C69.4273 57.8531 72.6573 54.5454 72.3466 52.686C71.9081 50.0682 66.2019 50.0682 62.7298 50.918Z" fill="#191919"/>
<path d="M95.9021 70.4026C97.5396 70.4026 98.8671 69.0752 98.8671 67.4377C98.8671 65.8001 97.5396 64.4727 95.9021 64.4727C94.2646 64.4727 92.9371 65.8001 92.9371 67.4377C92.9371 69.0752 94.2646 70.4026 95.9021 70.4026Z" fill="#191919"/>
<path d="M66.8324 70.4026C68.4699 70.4026 69.7974 69.0752 69.7974 67.4377C69.7974 65.8001 68.4699 64.4727 66.8324 64.4727C65.1948 64.4727 63.8674 65.8001 63.8674 67.4377C63.8674 69.0752 65.1948 70.4026 66.8324 70.4026Z" fill="#191919"/>
<path d="M83.1832 72.541L84.0558 79.9375H78.7746" stroke="black" stroke-width="3.0487" stroke-miterlimit="10" stroke-linecap="round" stroke-linejoin="round"/>
<path d="M70.4141 85.8174C70.4141 85.8174 73.74 87.5352 81.0497 87.5352C89.5107 87.5352 92.4209 85.8174 92.4209 85.8174" stroke="black" stroke-width="2.8498" stroke-miterlimit="10" stroke-linecap="round" stroke-linejoin="round"/>
<path d="M79.5695 92.7158H84.604" stroke="black" stroke-width="2.8498" stroke-miterlimit="10" stroke-linecap="round" stroke-linejoin="round"/>
<path d="M110.526 20.816L80.698 15.4297L51.5734 20.816L49.1429 29.8481L49.7414 40.2598C49.7414 40.2598 52.6288 28.4501 62.6796 30.8029C65.0507 31.3557 67.8877 32.274 71.2045 32.8953C74.302 33.5212 77.2578 33.8044 80.0447 33.8455C80.3736 33.8547 80.7162 33.8455 81.0498 33.8455C81.3833 33.8455 81.7259 33.8501 82.0548 33.8455C84.8417 33.7999 87.7929 33.5166 90.895 32.8953C94.2118 32.274 97.1128 31.5476 99.4199 30.8029C108.74 27.8013 112.171 39.7253 112.171 39.7253L112.961 29.8481L110.526 20.816Z" fill="#191919"/>
<path d="M57.3389 23.018C57.3389 23.018 42.6556 20.8845 40.1703 34.1835C37.685 47.4826 49.1384 72.5366 49.1384 72.5366L47.7678 53.175C46.9043 44.81 48.878 36.3947 53.3734 29.286L57.3389 23.018Z" fill="#191919"/>
<path d="M103.591 20.2584C103.591 20.2584 121.459 15.2695 123.483 34.1879C124.922 47.6241 115.268 70.4029 115.268 70.4029L115.565 64.7013C117.009 48.9307 114.341 38.6697 103.591 20.2584Z" fill="#191919"/>
<path d="M116.849 33.078C116.849 33.078 89.063 17.1383 50.9704 31.8079C50.9704 31.8079 33.0525 10.1576 60.8978 1.65547C84.6041 -5.57656 114.291 11.9804 116.849 33.078Z" fill="#191919"/>
<path d="M143.196 152.884L99.1823 139.251H82.0868H81.9132H64.8177L20.8042 152.884C20.8042 152.884 2 159.522 2 186.065H81.9132H82.0868H162C162 159.522 143.196 152.884 143.196 152.884Z" fill="#E69051" stroke="#1E0A05" stroke-width="3.0487" stroke-miterlimit="10"/>
<path d="M65.5349 139.028L51.345 143.423C51.345 143.423 55.9227 160.953 82.0868 160.953C108.251 160.953 111.376 143.03 111.376 143.03L97.9032 138.859" fill="white"/>
<path d="M65.5349 139.028L51.345 143.423C51.345 143.423 55.9227 160.953 82.0868 160.953C108.251 160.953 111.376 143.03 111.376 143.03L97.9032 138.859" stroke="#1E0A05" stroke-width="3.0487" stroke-miterlimit="10"/>
<path d="M65.608 138.069L65.0735 144.355L74.7725 144.03L98.6661 143.596L98.1179 137.73L65.608 138.069Z" fill="white"/>
</svg>
