<svg width="201" height="121" viewBox="0 0 201 121" fill="none" xmlns="http://www.w3.org/2000/svg">
<path d="M102.793 17.4459C101.774 21.6963 100.755 25.9467 99.7518 30.205C97.6108 39.2509 95.4145 48.2809 93.3841 57.3505C92.6573 60.5975 91.0535 61.8379 87.6248 61.7273C80.4039 61.4982 80.396 61.6878 78.2155 54.5538C73.4516 38.919 68.6877 23.2843 63.9317 7.64954C62.5017 2.94885 62.8178 2.54593 67.8503 2.53803C74.447 2.52223 74.4312 2.53013 76.114 9.1664C79.3373 21.8385 82.5844 34.5107 85.8314 47.2302C87.6564 46.5666 87.451 44.789 87.7828 43.3985C90.7454 31.1846 93.8423 18.9944 96.4494 6.7015C97.4133 2.13511 100.305 2.55383 103.489 2.51433C106.617 2.48273 109.287 2.34052 110.196 6.6225C113.143 20.4323 116.5 34.163 119.716 47.9175C119.755 48.0755 120.095 48.1624 120.703 48.5337C122.41 42.0555 124.101 35.7036 125.744 29.3359C127.64 21.9886 129.449 14.6176 131.369 7.27033C132.428 3.20166 139.317 0.452342 142.785 2.79084C144.894 4.2208 143.401 6.22748 142.911 7.81545C138.748 21.4356 134.458 35.0242 130.215 48.6206C129.204 51.8598 128.185 55.1068 127.205 58.3538C126.518 60.637 125.222 61.7589 122.631 61.6878C113.293 61.4271 114.549 62.9992 112.345 53.8349C109.438 41.7474 106.507 29.6757 103.583 17.5961C103.315 17.5408 103.054 17.4934 102.793 17.4459Z" fill="#F9F9F9"/>
<path d="M100.352 120.538C63.3788 120.032 30.9401 108.229 3.11512 84.1644C2.81491 83.9037 2.4989 83.6667 2.21449 83.3981C1.27435 82.4895 0.073498 81.5968 1.06104 80.0957C2.11968 78.492 3.44694 79.4479 4.51348 80.0642C10.0674 83.2717 15.7952 86.1395 21.6572 88.7387C50.3275 101.466 80.3961 107.146 111.666 105.724C133.534 104.729 154.722 100.005 175.058 91.725C175.903 91.3774 176.828 91.1799 177.618 90.7375C179.537 89.6788 181.354 89.829 182.405 91.725C183.511 93.7317 182.16 95.217 180.501 96.2914C177.199 98.4324 173.976 100.708 170.539 102.604C148.608 114.675 124.962 120.095 100.352 120.538Z" fill="#FA9500"/>
<path d="M46.0454 28.6172C45.5635 23.4978 46.7959 18.5047 43.0117 14.2386C38.5875 9.25346 32.9467 10.0909 27.4638 10.715C24.2642 11.0784 21.191 12.4768 18.023 13.2747C16.4034 13.6855 14.6179 15.5816 13.0773 13.5038C11.6948 11.6315 13.2433 6.25134 15.3131 5.2401C22.5577 1.71655 30.2527 0.247089 38.2399 1.18723C51.0068 2.70409 56.7267 9.15076 56.9795 22.0757C57.1217 29.1702 57.0743 36.2726 57.0032 43.375C56.9637 47.1276 57.5009 50.7223 59.4444 53.9456C61.9962 58.1881 58.0934 59.0255 55.9603 60.7557C53.6771 62.6044 51.789 62.1304 49.9719 59.7919C46.4878 55.2966 46.3298 55.265 41.8108 58.6384C36.9995 62.2331 31.3429 63.5524 25.6942 63.8526C17.7148 64.2793 9.76711 56.4184 9.01658 48.3522C7.91053 36.478 15.4079 27.7402 27.3295 26.8791C33.5392 26.4367 39.6225 27.1477 46.0454 28.6172ZM34.7875 34.8347C31.9117 34.5819 29.2651 34.7873 26.8002 35.7591C23.0792 37.2285 20.9066 39.9462 20.7644 44.1097C20.6222 48.0362 21.349 51.6703 25.2992 53.3373C30.5608 55.5652 35.6012 54.1747 40.2703 51.3385C44.9868 48.4786 46.0138 43.8095 46.0849 38.7533C46.1086 36.8493 44.8525 35.7117 43.2724 35.688C40.3177 35.6327 37.5526 34.1237 34.7875 34.8347Z" fill="#F9F9F9"/>
<path d="M171.163 0.82373C175.642 0.934335 179.893 1.66907 183.977 3.20963C185.186 3.66785 186.474 4.19717 187.398 5.05041C189.768 7.2309 189.61 10.2251 188.338 12.611C186.956 15.1944 185.202 12.4688 183.598 12.1133C179.806 11.2601 176.172 9.30868 172.04 10.8413C170.752 11.3233 169.132 11.2838 167.734 11.0468C164.171 10.4463 161.864 12.2318 160.655 15.1075C159.186 18.6074 160.632 21.7833 164.084 23.7189C168.927 26.4287 174.418 27.3846 179.585 29.2333C184.838 31.1136 189.326 33.8392 191.317 39.4168C194.105 47.2461 190.55 56.0865 182.847 60.1315C178.889 62.2093 174.686 63.3232 170.081 63.4891C163.713 63.7182 157.724 62.2251 151.72 60.6055C148.789 59.8155 146.838 53.9455 148.544 51.3621C149.785 49.474 151.301 50.6432 152.708 51.1962C159.297 53.8112 166.067 55.0358 173.146 53.7796C179.758 52.6025 183.116 46.9221 179.885 42.1978C178.265 39.8277 175.476 39.0139 172.933 38.0185C167.394 35.8459 161.351 35.1428 156.2 31.7772C147.952 26.3813 146.332 15.0285 153.079 7.76812C157.961 2.4749 164.329 0.847431 171.163 0.82373Z" fill="#F9F9F9"/>
<path d="M177.009 83.3428C173.746 83.6746 170.483 84.1091 167.213 84.2987C165.822 84.3777 163.705 85.5311 163.152 83.4297C162.67 81.5968 164.764 80.9332 166.075 80.2063C173.407 76.1298 181.386 74.6682 189.626 75.4108C200.892 76.43 202.006 78.2944 199.454 89.4181C197.637 97.3579 194.398 104.547 188.575 110.393C187.58 111.389 186.363 112.922 184.909 111.958C183.242 110.86 184.83 109.287 185.281 108.094C187.588 101.972 190.132 95.9517 190.803 89.347C191.174 85.7208 189.658 83.959 186.071 83.6746C183.061 83.4297 180.051 83.1373 177.009 83.3428Z" fill="#FA9500"/>
</svg>
