<svg width="138" height="154" viewBox="0 0 138 154" fill="none" xmlns="http://www.w3.org/2000/svg">
<path d="M69.2942 153.896C68.9249 153.896 68.5501 153.896 68.1809 153.896C65.82 153.13 63.2577 152.738 61.143 151.541C47.7776 143.988 34.513 136.257 21.2148 128.581C16.8119 126.036 12.3979 123.512 8.01735 120.917C3.38509 118.175 1.21441 113.812 0.173828 108.737C0.173828 87.5508 0.173828 66.37 0.173828 45.1835C1.26476 38.5204 5.32639 34.3021 11.0552 31.0629C27.4863 21.7704 43.7776 12.2317 60.1471 2.83294C65.5347 -0.260833 71.146 -0.423074 76.623 2.45811C81.6189 5.08194 86.4414 8.03585 91.331 10.8611C102.542 17.3451 113.597 24.1257 125.01 30.2349C133.296 34.6714 137.508 40.6128 137.268 50.3528C136.826 68.2665 136.859 86.2025 137.256 104.122C137.469 113.711 133.033 119.44 124.988 123.658C116.551 128.083 108.534 133.303 100.131 137.801C89.91 143.272 80.7126 150.719 69.2942 153.896ZM126.739 77.0611C126.739 67.3994 126.638 57.7376 126.789 48.0759C126.845 44.5121 125.262 42.3191 122.308 40.7918C121.569 40.4058 120.803 40.0645 120.081 39.6449C104.4 30.5426 88.7072 21.4515 73.0481 12.3045C69.876 10.4527 67.0004 10.7548 63.9178 12.6122C57.1037 16.713 50.1945 20.6515 43.3076 24.6236C33.685 30.1734 24.0289 35.6728 14.4119 41.2282C12.2188 42.4925 10.7307 44.238 10.7307 46.9961C10.7531 66.9686 10.7363 86.9466 10.7531 106.919C10.7531 109.079 11.5027 110.83 13.5391 111.993C20.3645 115.909 27.1338 119.926 33.9424 123.876C43.8671 129.638 53.8533 135.289 63.7052 141.174C67.1235 143.216 70.1445 143.345 73.5628 141.286C80.3769 137.185 87.2974 133.264 94.1898 129.292C103.656 123.837 113.122 118.371 122.621 112.972C125.592 111.283 126.845 108.955 126.789 105.487C126.638 96.0153 126.739 86.5326 126.739 77.0611Z" fill="#79EDD8"/>
<path d="M32.5886 77.0052C32.5886 72.2667 32.7509 67.5225 32.5439 62.7951C32.3257 57.7657 34.5579 54.2411 38.6922 51.8243C47.47 46.6885 56.2814 41.6031 65.1487 36.624C68.1474 34.94 71.4817 34.8617 74.5196 36.4785C83.0904 41.0436 91.5773 45.771 100.075 50.4648C102.151 51.6117 102.94 54.3642 102.106 57.2566C101.468 59.4664 99.583 58.9181 97.983 59.1363C93.4738 59.7517 90.3129 56.7698 86.766 54.9348C81.5127 52.2159 76.4049 49.206 71.1852 46.42C70.581 46.0955 69.4845 46.0899 68.8971 46.4256C60.634 51.1641 52.4044 55.953 44.2308 60.8426C43.5651 61.2399 43.0448 62.4483 43.0392 63.2875C42.9553 72.3898 42.9497 81.492 43.0504 90.5887C43.0616 91.4727 43.7049 92.7314 44.4378 93.1734C52.5219 98.0295 60.6675 102.785 68.8523 107.473C69.4845 107.837 70.6929 107.764 71.3643 107.4C77.949 103.825 84.5226 100.228 90.9954 96.4574C93.8207 94.8126 96.7914 94.4434 99.8348 94.9357C100.736 95.0811 101.927 96.4294 102.112 97.3973C102.682 100.39 102.061 102.656 98.7495 104.318C90.5647 108.413 82.7044 113.146 74.6147 117.437C71.4034 119.138 67.9628 118.936 64.7571 117.101C56.1583 112.189 47.5707 107.266 38.9943 102.315C34.7425 99.8589 32.3536 96.3679 32.5606 91.2097C32.7341 86.4824 32.5886 81.7438 32.5886 77.0052Z" fill="#79EDD8"/>
</svg>
